<?xml version="1.0" encoding="UTF-8" standalone="no"?>
<!-- Created with Inkscape (http://www.inkscape.org/) -->

<svg
   width="150mm"
   height="150mm"
   viewBox="0 0 150 150"
   version="1.1"
   id="svg11253"
   inkscape:version="1.2.1 (9c6d41e410, 2022-07-14)"
   sodipodi:docname="electron-radiant-update.svg"
   inkscape:export-filename="electron-radiant.png"
   inkscape:export-xdpi="96"
   inkscape:export-ydpi="96"
   xmlns:inkscape="http://www.inkscape.org/namespaces/inkscape"
   xmlns:sodipodi="http://sodipodi.sourceforge.net/DTD/sodipodi-0.dtd"
   xmlns="http://www.w3.org/2000/svg"
   xmlns:svg="http://www.w3.org/2000/svg">
  <sodipodi:namedview
     id="namedview11255"
     pagecolor="#ffffff"
     bordercolor="#000000"
     borderopacity="0.25"
     inkscape:showpageshadow="2"
     inkscape:pageopacity="0.0"
     inkscape:pagecheckerboard="0"
     inkscape:deskcolor="#d1d1d1"
     inkscape:document-units="mm"
     showgrid="false"
     inkscape:zoom="0.76078844"
     inkscape:cx="446.90479"
     inkscape:cy="421.9307"
     inkscape:window-width="1920"
     inkscape:window-height="1057"
     inkscape:window-x="-8"
     inkscape:window-y="-8"
     inkscape:window-maximized="1"
     inkscape:current-layer="layer2" />
  <defs
     id="defs11250">
    <linearGradient
       x1="0"
       y1="0"
       x2="1"
       y2="0"
       gradientUnits="userSpaceOnUse"
       gradientTransform="matrix(0,-2503.8162,-2503.8162,0,2014.4,3266.3081)"
       spreadMethod="pad"
       id="linearGradient464">
      <stop
         style="stop-opacity:1;stop-color:#30c5f4"
         offset="0"
         id="stop454" />
      <stop
         style="stop-opacity:1;stop-color:#30c5f4"
         offset="0.266348"
         id="stop456" />
      <stop
         style="stop-opacity:1;stop-color:#fff2c3"
         offset="0.69136871"
         id="stop458" />
      <stop
         style="stop-opacity:1;stop-color:#fff2c3"
         offset="0.820354"
         id="stop460" />
      <stop
         style="stop-opacity:1;stop-color:#fff2c3"
         offset="1"
         id="stop462" />
    </linearGradient>
    <linearGradient
       x1="0"
       y1="0"
       x2="1"
       y2="0"
       gradientUnits="userSpaceOnUse"
       gradientTransform="matrix(0,128,-127.99169,0,-208.65569,-344.61284)"
       spreadMethod="pad"
       id="linearGradient490">
      <stop
         style="stop-opacity:1;stop-color:#92d7eb"
         offset="0"
         id="stop480" />
      <stop
         style="stop-opacity:1;stop-color:#92d7eb"
         offset="0.16341567"
         id="stop482" />
      <stop
         style="stop-opacity:1;stop-color:#d97b86"
         offset="0.490679"
         id="stop484" />
      <stop
         style="stop-opacity:1;stop-color:#fff6c4"
         offset="0.73206222"
         id="stop486" />
      <stop
         style="stop-opacity:1;stop-color:#fff6c4"
         offset="1"
         id="stop488" />
    </linearGradient>
  </defs>
  <g
     inkscape:label="Layer 1"
     inkscape:groupmode="layer"
     id="layer1"
     transform="translate(272.6547,366.41291)">
    <g
       id="g450"
       style="display:inline"
       transform="matrix(0.05111865,0,0,-0.05112196,-311.62911,-177.63284)">
      <g
         id="g452">
        <path
           d="m 1900.276,3261.03 c -35.93,-3.365 -71.68,-7.91 -107.172,-14.276 v 0 c -79.142,-14.197 -156.313,-35.582 -231.223,-64.893 v 0 c -200.893,-78.605 -370.396,-200.906 -509.145,-365.978 v 0 c -2.828,-3.365 -5.71,-6.686 -8.925,-10.447 v 0 c -4.404,0 -8.791,0 -13.18,0 v 0 c -46.751,0.029 -93.503,0.06 -140.254,0.091 v 0 c -34.236,0.022 -68.471,0.066 -102.706,0.033 v 0 c -0.492,-10e-4 -0.992,0.021 -1.501,0.042 v 0 c -2.32,0.096 -4.812,0.192 -7.444,-1.769 v 0 c 2.885,-3.117 5.243,-5.842 7.785,-8.384 v 0 c 116.344,-116.366 232.704,-232.716 349.062,-349.069 v 0 c 11.991,-11.991 24.674,-23.198 38.244,-33.372 v 0 c 65.454,-49.078 139.196,-74.023 220.907,-74.706 v 0 c 44.731,-0.375 89.466,-0.314 134.201,-0.253 v 0 c 19.688,0.027 39.375,0.055 59.063,0.044 v 0 c 160.869,-0.082 321.738,-0.189 482.608,-0.202 v 0 c 15.145,0 30.111,-1.209 44.982,-4.108 v 0 c 101.857,-19.85 182.806,-119.833 161.198,-238.327 v 0 c -17.516,-96.065 -102.492,-166.274 -200.406,-166.837 v 0 c -8.976,-0.052 -17.953,-0.039 -26.929,-0.025 v 0 c -7.59,0.012 -15.179,0.024 -22.767,0 v 0 c -0.376,-10e-4 -0.765,0.023 -1.158,0.048 v 0 c -1.743,0.108 -3.599,0.217 -5.071,-1.942 v 0 c 1.683,-4.014 5.351,-6.6 8.377,-9.628 v 0 c 115.019,-115.088 230.073,-230.142 345.123,-345.199 v 0 c 1.04,-1.042 2.18,-2.004 3.099,-3.144 v 0 c 3.743,-4.635 8.378,-6.214 14.453,-6.175 v 0 c 22.932,0.144 45.503,2.943 67.833,7.936 v 0 c 41.238,9.221 80.001,24.933 117.013,45.091 v 0 c 61.481,33.486 115.445,76.147 158.637,131.623 v 0 c 78.434,100.74 121.42,215.233 130.974,342.263 v 0 c 3.738,49.7 1.344,99.347 -6.657,148.598 v 0 c -10.014,61.649 -27.169,121.266 -52.326,178.48 v 0 c -54.738,124.486 -139.749,222.346 -257.482,291.016 v 0 c -94.494,55.114 -197.284,83.556 -305.689,93.389 v 0 c -28.993,2.63 -58.061,3.159 -87.146,3.224 v 0 c -95.343,0.211 -190.686,0.461 -286.03,0.559 v 0 c -244.433,0.253 -488.867,0.431 -733.3,0.638 v 0 c -4.02,0 -8.039,0 -13.528,0 v 0 c 1.79,6.397 5.408,9.117 8.273,12.252 v 0 c 115.916,126.799 252.519,224.723 410.223,292.929 v 0 c 107.426,46.461 219.387,76.134 335.74,89.327 v 0 c 39.91,4.524 79.926,6.901 120.039,7.801 v 0 c 34.613,0.777 69.166,-0.969 103.707,-3.288 v 0 c 35.28,-2.368 70.354,-6.468 105.22,-12.15 v 0 c 72.056,-11.744 142.455,-29.983 211.217,-54.619 v 0 c 318.161,-113.987 576.652,-362.53 703.034,-676.147 v 0 c 39.126,-97.091 65.167,-197.531 77.753,-301.488 v 0 c 3.807,-31.446 6.691,-62.966 7.844,-94.583 v 0 c 2.404,-65.93 0.451,-131.718 -7.868,-197.266 v 0 c -4.914,-38.715 -11.334,-77.131 -19.871,-115.209 v 0 c -36.167,-161.326 -103.233,-308.631 -200.599,-442.17 v 0 c -46.119,-63.254 -97.994,-121.398 -155.679,-174.345 v 0 c -2.316,-2.125 -5.482,-3.759 -5.906,-7.297 v 0 c 10.498,-12.154 33.638,-34.78 40.874,-39.827 v 0 c 2.601,2.228 5.48,4.45 8.079,6.958 v 0 c 13.245,12.78 26.685,25.37 39.575,38.498 v 0 c 150.248,153.035 255.2,332.54 314.077,538.813 v 0 c 18.206,63.783 30.841,128.71 38.451,194.64 v 0 c 3.971,34.396 6.828,68.874 7.771,103.447 v 0 c 1.004,36.786 0.971,73.587 -1.159,110.388 v 0 c -2.469,42.655 -6.799,85.062 -13.327,127.279 v 0 c -9.35,60.46 -23.087,119.895 -41.451,178.231 v 0 c -62.66,199.051 -168.245,372.048 -316.773,518.532 v 0 c -218.677,215.669 -503.866,341.194 -808.544,358.248 v 0 c -23.516,1.316 -47.035,1.983 -70.553,1.983 v 0 c -37.907,0 -75.808,-1.734 -113.667,-5.278 M 876.465,2536.88 C 823.531,2421.317 788.819,2300.565 772.723,2174.431 v 0 c -5.457,-42.764 -8.757,-85.673 -9.898,-128.721 v 0 c -1.336,-50.444 0.582,-100.809 5.436,-151.072 v 0 c 3.61,-37.381 8.789,-74.505 15.614,-111.428 v 0 c 13.341,-72.169 32.746,-142.668 59.064,-211.154 v 0 c 97.018,-252.457 258.278,-453.761 483.295,-603.604 v 0 c 125.629,-83.658 262.569,-141.541 409.792,-175.012 v 0 c 42.001,-9.549 84.375,-16.811 127.135,-22.04 v 0 c 31.439,-3.844 62.964,-6.792 94.578,-7.836 v 0 c 55.195,-1.823 110.385,-1.711 165.484,3.43 v 0 c 34.454,3.214 68.764,7.275 102.855,13.194 v 0 c 10.508,1.825 21.011,3.081 31.778,3.075 v 0 c 250.682,-0.148 501.363,-0.115 752.045,-0.113 v 0 c 3.313,0 6.629,-0.063 9.937,0.073 v 0 c 0.201,0.008 0.412,0.004 0.626,0 v 0 c 1.211,-0.02 2.568,-0.04 3.36,2.07 v 0 c -1.61,4.235 -5.686,6.948 -8.955,10.218 v 0 c -444.025,444.088 -888.084,888.145 -1332.142,1332.203 v 0 c -2.081,2.081 -4.317,4.032 -6.226,6.262 v 0 c -2.888,3.374 -6.435,4.688 -10.777,4.288 v 0 c -1.46,-0.133 -2.944,-0.014 -4.416,-0.014 v 0 c -22.998,0 -45.996,0 -68.994,0 v 0 c -97.741,0 -195.483,0.01 -293.224,-0.076 v 0 c -8.435,-0.01 -16.917,-0.639 -25.297,-1.648 v 0 c -37.943,-4.57 -70.508,-20.523 -96.914,-48.061 v 0 c -37.087,-38.68 -52.843,-85.266 -47.458,-138.4 v 0 c 3.637,-35.892 19.008,-66.963 43.569,-93.399 v 0 c 5.008,-5.39 10.283,-10.535 15.488,-15.742 v 0 c 330.566,-330.574 661.137,-661.145 991.707,-991.716 v 0 c 2.863,-2.863 5.763,-5.692 8.558,-8.62 v 0 c 1.228,-1.286 2.238,-2.781 4.483,-5.615 v 0 c -3.447,-0.936 -5.104,-1.57 -6.818,-1.823 v 0 c -35.698,-5.27 -71.585,-8.974 -107.605,-10.642 v 0 c -65.158,-3.016 -130.235,-1.884 -195.146,5.526 v 0 c -34.014,3.883 -67.81,8.932 -101.407,15.494 v 0 c -85.922,16.783 -169.094,42.512 -248.901,78.4 v 0 c -252.174,113.399 -443.834,292.121 -574.608,535.688 v 0 c -52.169,97.168 -88.923,200.17 -111.655,308.145 v 0 c -8.95,42.517 -15.634,85.353 -19.958,128.595 v 0 c -3.006,30.051 -4.996,60.154 -5.734,90.322 v 0 c -1.552,63.396 1.888,126.533 10.368,189.406 v 0 c 5.265,39.041 12.329,77.728 21.397,116.053 v 0 c 17.669,74.677 42.319,146.969 74.107,216.823 v 0 c 1.331,2.926 2.309,6.011 3.305,8.635 v 0 c -11.712,14.155 -36.832,38.858 -44.082,43.229 v 0 c -3.359,-7.357 -6.684,-14.654 -10.024,-21.945"
           style="display:inline;fill:url(#linearGradient464);stroke:none"
           id="path466" />
      </g>
    </g>
    <path
       d="m -214.48956,-344.34284 c -1.83669,0.172 -3.66419,0.405 -5.47849,0.73 v 0 c -4.04563,0.726 -7.99046,1.819 -11.81981,3.318 v 0 c -10.26938,4.018 -18.93414,10.27 -26.0268,18.709 v 0 c -0.14457,0.172 -0.29189,0.342 -0.45624,0.534 v 0 c -0.14328,0 -0.28616,0 -0.42893,0 v 0 c -0.0816,0 -0.16317,0 -0.24476,0 v 0 c -2.3899,0 -4.7798,0 -7.16965,0 v 0 c -1.30347,0 -2.60689,0 -3.91032,0 v 0 c -0.44662,0 -0.89329,0 -1.33987,0 v 0 h -8.7e-4 c -0.0496,0 -0.10096,0 -0.15386,0 v 0 c -0.0959,0 -0.19702,0.01 -0.30247,0.09 v 0 c 0.14747,0.16 0.26801,0.299 0.39796,0.429 v 0 c 5.94734,5.949 11.89551,11.897 17.84357,17.845 v 0 c 0.61297,0.613 1.26136,1.186 1.95499,1.706 v 0 c 3.34592,2.509 7.11551,3.784 11.29246,3.819 v 0 c 1.42918,0.01 2.8582,0.01 4.28748,0.01 v 0 c 1.71529,0 3.43052,0 5.14581,0 v 0 c 0.14855,0 0.29756,0 0.44611,0 v 0 c 8.22341,0 16.44681,0.01 24.67032,0.01 v 0 c 0.77414,0 1.53918,0.06 2.29932,0.21 v 0 c 5.20684,1.014 9.34479,6.126 8.24027,12.183 v 0 c -0.89539,4.911 -5.23925,8.5 -10.24453,8.529 v 0 c -0.24854,0 -0.49708,0 -0.74572,0 v 0 c -0.41943,0 -0.83876,0 -1.25819,0 v 0 c -0.17876,0 -0.35767,0 -0.53643,0 v 0 h -0.001 c -0.0375,0 -0.0771,0 -0.11686,0 v 0 c -0.0706,0 -0.14134,0.02 -0.20008,0.102 v 0 c 0.086,0.205 0.27354,0.337 0.42822,0.492 v 0 c 5.87962,5.884 11.76102,11.765 17.64217,17.647 v 0 c 0.0532,0.05 0.11149,0.103 0.15847,0.161 v 0 c 0.18904,0.234 0.42265,0.316 0.72783,0.316 v 0 c 0.004,0 0.007,0 0.011,0 v 0 c 1.17225,0 2.32605,-0.151 3.46753,-0.406 v 0 c 2.10803,-0.471 4.08954,-1.274 5.98155,-2.305 v 0 c 3.14282,-1.712 5.90134,-3.893 8.10931,-6.729 v 0 c 4.00949,-5.15 6.20682,-11.003 6.69521,-17.497 v 0 c 0.19108,-2.541 0.0687,-5.079 -0.3403,-7.597 v 0 c -0.51196,-3.151 -1.3889,-6.199 -2.67489,-9.124 v 0 c -2.79819,-6.364 -7.14378,-11.367 -13.16214,-14.877 v 0 c -4.8304,-2.818 -10.08489,-4.272 -15.62641,-4.774 v 0 c -1.48208,-0.135 -2.968,-0.162 -4.45478,-0.165 v 0 c -4.87381,-0.01 -9.74761,-0.02 -14.62147,-0.03 v 0 c -12.49509,-0.01 -24.99022,-0.02 -37.48531,-0.03 v 0 c -0.0734,0 -0.14676,0 -0.22359,0 v 0 c -0.13823,0 -0.28759,0 -0.46794,0 v 0 c 0.0915,-0.327 0.27645,-0.466 0.4229,-0.627 v 0 c 5.92547,-6.482 12.90844,-11.488 20.97005,-14.975 v 0 c 5.49147,-2.375 11.21477,-3.892 17.16258,-4.566 v 0 c 2.04014,-0.232 4.08576,-0.353 6.13623,-0.399 v 0 c 0.29081,0 0.58152,-0.01 0.87219,-0.01 v 0 c 1.47773,0 2.95368,0.08 4.42917,0.178 v 0 c 1.80347,0.121 3.5964,0.33 5.3787,0.621 v 0 c 3.68341,0.6 7.28211,1.532 10.79708,2.792 v 0 c 16.26401,5.827 29.47773,18.533 35.9382,34.566 v 0 c 2.00007,4.963 3.33125,10.098 3.97463,15.412 v 0 c 0.19461,1.608 0.34204,3.219 0.40098,4.836 v 0 c 0.12289,3.37 0.0231,6.733 -0.4022,10.084 v 0 c -0.25125,1.98 -0.57943,3.943 -1.01578,5.89 v 0 c -1.84881,8.247 -5.27714,15.778 -10.25435,22.605 v 0 c -2.35755,3.233 -5.00932,6.206 -7.9581,8.912 v 0 c -0.1184,0.109 -0.28024,0.193 -0.30191,0.373 v 0 c 0.53664,0.622 1.71948,1.778 2.08942,2.036 v 0 c 0.13301,-0.113 0.28013,-0.227 0.41299,-0.355 v 0 c 0.67707,-0.654 1.36405,-1.297 2.02302,-1.968 v 0 c 7.68048,-7.824 13.04548,-17 16.05519,-27.545 v 0 c 0.93062,-3.261 1.57655,-6.58 1.96557,-9.951 v 0 c 0.20299,-1.758 0.34903,-3.521 0.39724,-5.288 v 0 c 0.0513,-1.881 0.0496,-3.762 -0.0592,-5.644 v 0 c -0.12621,-2.18 -0.34755,-4.348 -0.68126,-6.506 v 0 c -0.47795,-3.091 -1.18017,-6.13 -2.11886,-9.112 v 0 c -3.20315,-10.176 -8.60051,-19.02 -16.19311,-26.508 v 0 c -11.17843,-11.026 -25.7569,-17.443 -41.33163,-18.315 v 0 c -1.20231,-0.07 -2.40437,-0.101 -3.60673,-0.101 v 0 c -1.9376,0 -3.87525,0.09 -5.81035,0.27 m -43.99598,24.007 h 0.21464 0.32967 l 0.21424,-0.251 c 0.0532,-0.06 0.10459,-0.122 0.15468,-0.18 v 0 c 0.10571,-0.123 0.20555,-0.24 0.30549,-0.359 v 0 c 3.49789,-4.161 7.43178,-7.826 11.69231,-10.892 v 0 c 4.27511,-3.076 9.00139,-5.637 14.04741,-7.611 v 0 c 3.70493,-1.45 7.63651,-2.553 11.68542,-3.28 v 0 c 1.68109,-0.301 3.45357,-0.537 5.41883,-0.721 v 0 c 1.89021,-0.177 3.82265,-0.267 5.74364,-0.267 v 0 c 1.17788,0 2.37789,0.03 3.56675,0.1 v 0 c 7.67808,0.43 15.10183,2.21 22.06491,5.29 v 0 c 6.98592,3.09 13.31262,7.403 18.8042,12.819 v 0 c 3.7355,3.685 6.97693,7.759 9.63433,12.11 v 0 c 2.65526,4.348 4.80132,9.093 6.37859,14.104 v 0 c 0.91512,2.907 1.61974,5.938 2.09428,9.006 v 0 c 0.31959,2.067 0.5464,4.233 0.6741,6.439 v 0 c 0.0962,1.664 0.11537,3.49 0.0583,5.582 v 0 c -0.0439,1.606 -0.17233,3.316 -0.3928,5.226 v 0 c -0.38958,3.375 -1.04318,6.684 -1.94282,9.836 v 0 c -1.47952,5.184 -3.56752,10.106 -6.20611,14.629 v 0 c -2.63184,4.512 -5.8858,8.755 -9.6716,12.611 v 0 c -0.47954,0.489 -0.98648,0.974 -1.47671,1.444 v 0 c -0.15233,0.145 -0.30467,0.291 -0.45659,0.438 v 0 c -0.32491,-0.299 -0.75784,-0.723 -1.11894,-1.101 v 0 c 2.89485,-2.679 5.54372,-5.657 7.87585,-8.856 v 0 c 2.50952,-3.442 4.65395,-7.108 6.37358,-10.895 v 0 c 1.72535,-3.8 3.07141,-7.829 4.00075,-11.974 v 0 c 0.42096,-1.878 0.75701,-3.826 1.02738,-5.956 v 0 c 0.40747,-3.211 0.54068,-6.547 0.40747,-10.201 v 0 c -0.0542,-1.487 -0.18694,-3.088 -0.40568,-4.895 v 0 c -0.64476,-5.326 -1.99767,-10.573 -4.02135,-15.595 v 0 c -1.61678,-4.012 -3.67768,-7.874 -6.12545,-11.479 v 0 c -2.41801,-3.562 -5.22233,-6.885 -8.33505,-9.879 v 0 c -3.11246,-2.993 -6.54247,-5.666 -10.19469,-7.943 v 0 c -3.69654,-2.304 -7.63483,-4.212 -11.70536,-5.671 v 0 c -3.54834,-1.271 -7.22347,-2.222 -10.92339,-2.825 v 0 c -1.82248,-0.297 -3.65472,-0.508 -5.44592,-0.628 v 0 c -1.32029,-0.09 -2.88473,-0.18 -4.47707,-0.18 v 0 c -0.30079,0 -0.59968,0 -0.88829,0.01 v 0 c -2.2183,0.05 -4.24658,0.182 -6.2008,0.403 v 0 c -2.99959,0.341 -5.97899,0.901 -8.85559,1.665 v 0 c -2.88621,0.768 -5.74952,1.762 -8.51044,2.956 v 0 c -4.04987,1.752 -7.89149,3.918 -11.41811,6.439 v 0 c -3.51119,2.51 -6.80707,5.441 -9.79603,8.71 v 0 c -0.0175,0.02 -0.0397,0.04 -0.0633,0.07 v 0 c -0.15755,0.161 -0.39571,0.404 -0.52059,0.851 v 0 l -0.25437,0.908 h 0.94355 0.2652 0.20274 0.22298 c 3.52647,0 7.05299,0 10.57946,0 v 0 c 8.81848,0 17.93718,0.01 26.90569,0.02 v 0 c 3.90603,0 7.87754,0.01 11.71839,0.02 v 0 h 2.90226 c 1.38798,0 2.88064,0.03 4.39171,0.162 v 0 c 2.80104,0.254 5.47245,0.756 7.94,1.492 v 0 c 2.61508,0.78 5.10159,1.853 7.39053,3.188 v 0 c 2.90819,1.696 5.46929,3.79 7.61213,6.223 v 0 c 2.11442,2.401 3.88262,5.201 5.25541,8.324 v 0 c 1.23083,2.799 2.11355,5.811 2.62361,8.951 v 0 c 0.4044,2.49 0.51645,4.989 0.33299,7.428 v 0 c -0.23913,3.18 -0.90613,6.225 -1.98238,9.051 v 0 c -1.08704,2.855 -2.62254,5.566 -4.56382,8.06 v 0 c -1.03751,1.333 -2.24641,2.568 -3.59313,3.672 v 0 c -1.27587,1.046 -2.72049,2.011 -4.29387,2.868 v 0 c -1.96858,1.072 -3.86431,1.803 -5.79537,2.235 v 0 c -1.12236,0.251 -2.23798,0.382 -3.31489,0.389 v 0 h -0.007 c -0.13087,0 -0.14518,-0.02 -0.17105,-0.05 v 0 c -0.0622,-0.08 -0.1258,-0.137 -0.17227,-0.181 v 0 c -0.0123,-0.01 -0.0248,-0.02 -0.0369,-0.04 v 0 l -2.17633,-2.177 c -4.86241,-4.863 -9.88333,-9.884 -14.83361,-14.838 v 0 c 0.18219,0 0.36432,0 0.54651,0 v 0 c 0.28626,0 0.52453,0 0.74986,0 v 0 c 2.58967,-0.02 5.11708,-0.938 7.11663,-2.599 v 0 c 2.0059,-1.666 3.36535,-3.981 3.82787,-6.517 v 0 c 0.55351,-3.036 -0.11256,-6.065 -1.87554,-8.528 v 0 c -0.82526,-1.153 -1.84789,-2.131 -3.03942,-2.905 v 0 c -1.20169,-0.781 -2.51135,-1.313 -3.89248,-1.582 v 0 c -0.77035,-0.15 -1.56729,-0.223 -2.43621,-0.223 v 0 c -6.54354,0 -13.19658,0 -19.63063,0 v 0 h -5.03943 -0.44642 c -0.85813,0 -1.73042,0 -2.57393,0 v 0 c -0.843,0 -1.71472,0 -2.57188,0 v 0 c -1.68303,0 -3.0435,0 -4.2815,-0.02 v 0 c -2.00252,-0.02 -3.93189,-0.334 -5.73459,-0.944 v 0 c -1.80254,-0.609 -3.5301,-1.529 -5.13451,-2.732 v 0 c -0.63346,-0.475 -1.26544,-1.026 -1.87836,-1.639 v 0 l -2.5251,-2.525 c -4.87161,-4.872 -9.74312,-9.744 -14.61426,-14.616 v 0 c 0.063,0 0.12595,0 0.18898,0 v 0 c 0.92259,0 1.84518,0 2.76777,0 v 0 h 1.14209 7.1696 0.24527 z m -8.33986,13.013 c -2.70591,5.908 -4.48034,12.081 -5.30315,18.529 v 0 c -0.27895,2.186 -0.44765,4.38 -0.50597,6.58 v 0 c -0.0683,2.579 0.0297,5.154 0.27788,7.724 v 0 c 0.18454,1.911 0.44928,3.808 0.79816,5.696 v 0 c 0.68198,3.689 1.67394,7.293 3.01933,10.795 v 0 c 4.95938,12.906 13.20277,23.197 24.70534,30.857 v 0 c 6.42198,4.277 13.42217,7.236 20.94801,8.947 v 0 c 2.14704,0.488 4.31314,0.859 6.49897,1.127 v 0 c 1.60712,0.196 3.21864,0.347 4.8347,0.4 v 0 c 1.02912,0.03 2.05824,0.06 3.08711,0.06 v 0 c 1.79186,0 3.58295,-0.06 5.37221,-0.23 v 0 c 1.76124,-0.164 3.51512,-0.372 5.25781,-0.675 v 0 c 0.53588,-0.09 1.07144,-0.157 1.62046,-0.157 v 0 c 0.001,0 0.003,0 0.004,0 v 0 c 8.67781,0 17.35601,0 26.03381,0 v 0 c 4.13668,0 8.273,0 12.40972,0 v 0 c 0.0818,0 0.16363,0 0.24547,0 v 0 c 0.0875,0 0.17509,0 0.2625,0 v 0 c 0.005,0 0.009,0 0.0142,0 v 0 c 0.0117,0 0.0238,0 0.0361,0 v 0 c 0.0568,0 0.11691,0 0.15341,-0.106 v 0 c -0.0823,-0.217 -0.29066,-0.355 -0.45777,-0.522 v 0 c -22.69846,-22.703 -45.39821,-45.404 -68.0978,-68.105 v 0 c -0.10638,-0.107 -0.22068,-0.206 -0.31827,-0.32 v 0 c -0.1306,-0.153 -0.28764,-0.223 -0.47581,-0.223 v 0 c -0.0245,0 -0.0495,0 -0.0751,0 v 0 c -0.0267,0 -0.0536,0 -0.0805,0 v 0 c -0.0483,0 -0.0967,0 -0.14498,0 v 0 h -5e-4 -0.43339 c -2.08088,0 -4.16182,0 -6.24281,0 v 0 c -3.94677,0 -7.89308,0 -11.8399,0 v 0 c -0.43118,0 -0.86477,0.03 -1.29315,0.08 v 0 c -1.93959,0.234 -3.60427,1.049 -4.95411,2.457 v 0 c -1.89584,1.977 -2.70126,4.359 -2.42604,7.075 v 0 c 0.18597,1.835 0.97171,3.424 2.22724,4.775 v 0 c 0.256,0.276 0.52565,0.539 0.79173,0.805 v 0 c 16.89808,16.899 33.79642,33.799 50.69472,50.698 v 0 c 0.14635,0.147 0.29459,0.291 0.43742,0.441 v 0 c 0.0629,0.07 0.11445,0.142 0.22921,0.287 v 0 c -0.1762,0.05 -0.26091,0.08 -0.34852,0.09 v 0 c -1.82484,0.27 -3.65933,0.459 -5.50062,0.544 v 0 c -1.11506,0.05 -2.22985,0.08 -3.34383,0.08 v 0 c -2.21354,0 -4.42447,-0.11 -6.63178,-0.362 v 0 c -1.73875,-0.199 -3.46635,-0.457 -5.18378,-0.792 v 0 c -4.39222,-0.858 -8.64386,-2.174 -12.72349,-4.008 v 0 c -12.89074,-5.798 -22.68814,-14.934 -29.37308,-27.386 v 0 c -2.66686,-4.967 -4.54568,-10.233 -5.70766,-15.753 v 0 c -0.45756,-2.173 -0.79924,-4.363 -1.02027,-6.574 v 0 c -0.15367,-1.536 -0.25539,-3.075 -0.29312,-4.617 v 0 c -0.0793,-3.241 0.0965,-6.469 0.53,-9.683 v 0 c 0.26919,-1.996 0.63024,-3.974 1.09379,-5.933 v 0 c 0.90321,-3.818 2.16329,-7.513 3.78825,-11.084 v 0 c 0.068,-0.15 0.11808,-0.308 0.16894,-0.442 v 0 c -0.5987,-0.723 -1.8828,-1.986 -2.25341,-2.21 v 0 c -0.17171,0.376 -0.34168,0.749 -0.51241,1.122 m 55.29709,89.94 c -1.4346,-0.05 -2.95072,-0.173 -4.77147,-0.396 v 0 c -2.19176,-0.268 -4.35423,-0.643 -6.4272,-1.114 v 0 c -3.72292,-0.846 -7.34519,-2.014 -10.7661,-3.472 v 0 c -3.45485,-1.471 -6.80041,-3.279 -9.94385,-5.373 v 0 c -2.83259,-1.886 -5.50088,-3.963 -7.9307,-6.172 v 0 c -2.4288,-2.208 -4.68758,-4.61 -6.71367,-7.141 v 0 c -2.02655,-2.531 -3.87725,-5.26 -5.50073,-8.113 v 0 c -1.62485,-2.855 -3.06783,-5.914 -4.2889,-9.092 v 0 c -1.29361,-3.366 -2.29738,-6.956 -2.98359,-10.668 v 0 c -0.34107,-1.845 -0.60673,-3.741 -0.78958,-5.635 v 0 c -0.24839,-2.573 -0.34086,-5.142 -0.27482,-7.635 v 0 c 0.0574,-2.166 0.22574,-4.356 0.50045,-6.509 v 0 c 0.40415,-3.167 1.05126,-6.317 1.9235,-9.361 v 0 c 0.86896,-3.033 1.98616,-6.048 3.32041,-8.961 v 0 c 0.0401,-0.09 0.0802,-0.175 0.12028,-0.263 v 0 c 0.36688,0.347 0.81703,0.801 1.1743,1.199 v 0 c -1.63048,3.583 -2.9201,7.356 -3.83303,11.215 v 0 c -0.45853,1.938 -0.83088,3.958 -1.10657,6.002 v 0 c -0.43583,3.232 -0.61628,6.527 -0.53623,9.796 v 0 c 0.0367,1.5 0.13649,3.072 0.29644,4.671 v 0 c 0.22088,2.209 0.56813,4.447 1.03208,6.651 v 0 c 0.59012,2.803 1.36962,5.555 2.3167,8.179 v 0 c 0.96374,2.67 2.12812,5.282 3.46073,7.765 v 0 c 1.6814,3.131 3.58526,6.096 5.65873,8.812 v 0 c 2.07476,2.718 4.37709,5.261 6.84316,7.561 v 0 c 2.46622,2.299 5.16477,4.418 8.02062,6.298 v 0 c 2.85451,1.878 5.94571,3.57 9.18765,5.028 v 0 c 4.02171,1.809 8.35514,3.174 12.87981,4.058 v 0 c 1.67904,0.328 3.39305,0.59 5.23986,0.801 v 0 c 2.13053,0.243 4.3891,0.366 6.7129,0.366 v 0 c 1.09072,0 2.22689,-0.03 3.3769,-0.08 v 0 c 1.77898,-0.08 3.65371,-0.268 5.57214,-0.551 v 0 c 0.10561,-0.02 0.19333,-0.04 0.28616,-0.07 v 0 c 0.0417,-0.01 0.0889,-0.03 0.14523,-0.04 v 0 l 1.04732,-0.284 -0.67374,-0.851 c -0.038,-0.05 -0.0685,-0.09 -0.0947,-0.122 v 0 c -0.0593,-0.08 -0.11052,-0.144 -0.17789,-0.215 v 0 c -0.11241,-0.117 -0.22651,-0.231 -0.33687,-0.34 v 0 c -0.0374,-0.04 -0.0748,-0.08 -0.11216,-0.112 v 0 l -6.85066,-6.851 c -14.61472,-14.616 -29.22949,-29.232 -43.84401,-43.848 v 0 c -0.0542,-0.05 -0.10852,-0.108 -0.16291,-0.162 v 0 c -0.21389,-0.213 -0.41586,-0.414 -0.61062,-0.623 v 0 c -1.18989,-1.281 -1.8761,-2.748 -2.03948,-4.36 v 0 c -0.12682,-1.252 -0.004,-2.433 0.36407,-3.511 v 0 c 0.36989,-1.083 0.99789,-2.091 1.86655,-2.997 v 0 c 1.2205,-1.273 2.74231,-2.027 4.52308,-2.242 v 0 c 0.4389,-0.05 0.8341,-0.08 1.20819,-0.08 v 0 c 4.07405,0 8.09785,0 11.83928,0 v 0 h 3.12136 3.12145 0.43369 c 0.018,0 0.0359,0 0.0539,0 v 0 c 0.0304,0 0.0608,0 0.0911,0 v 0 c 0.0405,0 0.0782,0 0.11435,0 v 0 c 0.081,0.09 0.16332,0.17 0.23673,0.241 v 0 c 0.031,0.03 0.0622,0.06 0.0925,0.09 v 0 l 1.81114,1.811 c 21.53245,21.534 43.79248,43.795 65.69641,65.704 v 0 h -5.06765 -6.50024 c -8.255,0 -17.1223,0 -26.03381,0 v 0 h -0.004 c -0.5301,0 -1.08392,0.05 -1.74284,0.168 v 0 c -1.54276,0.267 -3.19573,0.479 -5.20193,0.667 v 0 c -1.63733,0.152 -3.37286,0.227 -5.30571,0.227 v 0 c -0.95224,0 -1.95432,-0.02 -3.06349,-0.05"
       style="display:inline;fill:url(#linearGradient490);stroke:none;stroke-width:0.0511203"
       id="path492" />
  </g>
  <g
     inkscape:groupmode="layer"
     id="layer2"
     inkscape:label="Layer 2">
    <g
       transform="matrix(0.42408,0,0,0.42408,-25.5621,-33.189292)"
       id="g11668">
      <g
         transform="matrix(0.38915,0,0,0.41528,19.264939,79.903883)"
         id="g11666">
        <ellipse
           cx="797.04999"
           cy="196.05"
           rx="190.45"
           ry="183.55"
           fill="#ff2222"
           stroke="#ffffff"
           stroke-linecap="round"
           stroke-linejoin="round"
           stroke-miterlimit="4.2"
           stroke-width="32.908"
           style="paint-order:markers fill stroke"
           id="ellipse11660" />
        <text
           x="717.65588"
           y="280.96396"
           fill="#000000"
           font-family="Helvetica"
           font-size="266.67px"
           font-weight="bold"
           letter-spacing="0px"
           word-spacing="0px"
           style="line-height:1.25;font-variant-ligatures:normal;font-variant-caps:normal;font-variant-numeric:normal;font-feature-settings:normal"
           xml:space="preserve"
           id="text11664"><tspan
             x="717.65588"
             y="280.96396"
             fill="#ffffff"
             font-family="Helvetica"
             font-size="266.67px"
             font-weight="bold"
             style="font-variant-ligatures:normal;font-variant-caps:normal;font-variant-numeric:normal;font-feature-settings:normal"
             id="tspan11662">1</tspan></text>
      </g>
    </g>
  </g>
</svg>
