<?xml version="1.0" encoding="UTF-8" standalone="no"?>
<!-- Created with Inkscape (http://www.inkscape.org/) -->

<svg
   width="150mm"
   height="150mm"
   viewBox="0 0 150 150"
   version="1.1"
   id="svg11253"
   inkscape:version="1.2.1 (9c6d41e410, 2022-07-14)"
   sodipodi:docname="electron-radiant-update.svg"
   inkscape:export-filename="electron-radiant.png"
   inkscape:export-xdpi="96"
   inkscape:export-ydpi="96"
   xmlns:inkscape="http://www.inkscape.org/namespaces/inkscape"
   xmlns:sodipodi="http://sodipodi.sourceforge.net/DTD/sodipodi-0.dtd"
   xmlns:xlink="http://www.w3.org/1999/xlink"
   xmlns="http://www.w3.org/2000/svg"
   xmlns:svg="http://www.w3.org/2000/svg">
  <sodipodi:namedview
     id="namedview11255"
     pagecolor="#ffffff"
     bordercolor="#000000"
     borderopacity="0.25"
     inkscape:showpageshadow="2"
     inkscape:pageopacity="0.0"
     inkscape:pagecheckerboard="0"
     inkscape:deskcolor="#d1d1d1"
     inkscape:document-units="mm"
     showgrid="false"
     inkscape:zoom="1.0759173"
     inkscape:cx="253.27225"
     inkscape:cy="329.951"
     inkscape:window-width="1920"
     inkscape:window-height="1009"
     inkscape:window-x="1912"
     inkscape:window-y="-8"
     inkscape:window-maximized="1"
     inkscape:current-layer="layer2" />
  <defs
     id="defs11250">
    <linearGradient
       x1="0"
       y1="0"
       x2="1"
       y2="0"
       gradientUnits="userSpaceOnUse"
       gradientTransform="matrix(0,-2503.8162,-2503.8162,0,2014.4,3266.3081)"
       spreadMethod="pad"
       id="linearGradient464">
      <stop
         style="stop-opacity:1;stop-color:#30c5f4"
         offset="0"
         id="stop454" />
      <stop
         style="stop-opacity:1;stop-color:#30c5f4"
         offset="0.266348"
         id="stop456" />
      <stop
         style="stop-opacity:1;stop-color:#fff2c3"
         offset="0.69136871"
         id="stop458" />
      <stop
         style="stop-opacity:1;stop-color:#fff2c3"
         offset="0.820354"
         id="stop460" />
      <stop
         style="stop-opacity:1;stop-color:#fff2c3"
         offset="1"
         id="stop462" />
    </linearGradient>
    <linearGradient
       x1="0"
       y1="0"
       x2="1"
       y2="0"
       gradientUnits="userSpaceOnUse"
       gradientTransform="matrix(0,128,-127.99169,0,-208.65569,-344.61284)"
       spreadMethod="pad"
       id="linearGradient490">
      <stop
         style="stop-opacity:1;stop-color:#92d7eb"
         offset="0"
         id="stop480" />
      <stop
         style="stop-opacity:1;stop-color:#92d7eb"
         offset="0.16341567"
         id="stop482" />
      <stop
         style="stop-opacity:1;stop-color:#d97b86"
         offset="0.490679"
         id="stop484" />
      <stop
         style="stop-opacity:1;stop-color:#fff6c4"
         offset="0.73206222"
         id="stop486" />
      <stop
         style="stop-opacity:1;stop-color:#fff6c4"
         offset="1"
         id="stop488" />
    </linearGradient>
    <clipPath
       clipPathUnits="userSpaceOnUse"
       id="clipPath588">
      <path
         d="m 1900.276,3261.03 c -35.93,-3.365 -71.68,-7.91 -107.172,-14.277 v 0 c -79.142,-14.197 -156.312,-35.581 -231.223,-64.892 v 0 c -200.893,-78.605 -370.396,-200.906 -509.145,-365.978 v 0 c -2.828,-3.365 -5.71,-6.686 -8.925,-10.447 v 0 c -2.803,0 -5.598,0 -8.391,0 v 0 c -1.597,0 -3.192,0 -4.788,0 v 0 c -46.752,0.03 -93.504,0.06 -140.255,0.091 v 0 c -25.499,0.016 -50.997,0.045 -76.495,0.045 v 0 c -8.737,0 -17.475,0 -26.211,-0.012 v 0 h -0.018 c -0.971,0 -1.975,0.083 -3.01,0.083 v 0 c -1.876,0 -3.854,-0.273 -5.917,-1.81 v 0 c 2.885,-3.117 5.243,-5.842 7.785,-8.384 v 0 c 116.344,-116.366 232.704,-232.716 349.062,-349.069 v 0 c 11.991,-11.992 24.675,-23.198 38.244,-33.372 v 0 c 65.454,-49.078 139.196,-74.023 220.907,-74.706 v 0 c 27.958,-0.234 55.913,-0.298 83.873,-0.298 v 0 c 33.555,0 67.109,0.092 100.664,0.092 v 0 c 2.906,0 5.821,0 8.727,0 v 0 c 160.869,-0.082 321.738,-0.189 482.609,-0.202 v 0 c 15.144,0 30.11,-1.209 44.98,-4.108 v 0 c 101.858,-19.85 182.806,-119.833 161.199,-238.327 v 0 c -17.516,-96.065 -102.492,-166.273 -200.407,-166.837 v 0 c -4.862,-0.028 -9.724,-0.037 -14.588,-0.037 v 0 c -8.205,0 -16.408,0.026 -24.613,0.026 v 0 c -3.497,0 -6.997,0 -10.494,-0.018 v 0 h -0.029 c -0.733,0 -1.509,0.096 -2.286,0.096 v 0 c -1.381,0 -2.765,-0.304 -3.914,-1.99 v 0 c 1.683,-4.014 5.351,-6.6 8.377,-9.628 v 0 c 115.019,-115.088 230.073,-230.142 345.122,-345.199 v 0 c 1.041,-1.042 2.181,-2.004 3.1,-3.144 v 0 c 3.698,-4.579 8.268,-6.177 14.238,-6.177 v 0 c 0.071,0 0.143,0 0.215,0 v 0 c 22.932,0.144 45.503,2.943 67.833,7.936 v 0 c 41.238,9.221 80.001,24.933 117.013,45.091 v 0 c 61.481,33.486 115.444,76.147 158.637,131.623 v 0 c 78.435,100.74 121.42,215.233 130.974,342.263 v 0 c 3.738,49.7 1.344,99.347 -6.657,148.598 v 0 c -10.014,61.649 -27.169,121.266 -52.326,178.48 v 0 c -54.739,124.486 -139.749,222.346 -257.482,291.016 v 0 c -94.494,55.114 -197.284,83.556 -305.689,93.389 v 0 c -28.993,2.63 -58.061,3.159 -87.146,3.224 v 0 c -95.343,0.213 -190.686,0.461 -286.03,0.56 v 0 c -244.433,0.252 -488.867,0.43 -733.3,0.637 v 0 c -1.436,0 -2.871,0 -4.374,0 v 0 c -2.704,0 -5.626,0 -9.154,0 v 0 c 1.79,6.397 5.408,9.117 8.273,12.252 v 0 c 115.916,126.799 252.519,224.723 410.223,292.929 v 0 c 107.426,46.461 219.387,76.134 335.74,89.327 v 0 c 39.91,4.524 79.927,6.902 120.039,7.801 v 0 c 5.689,0.128 11.376,0.187 17.062,0.187 v 0 c 28.908,0 57.781,-1.537 86.645,-3.475 v 0 c 35.28,-2.368 70.354,-6.468 105.22,-12.15 v 0 c 72.056,-11.744 142.455,-29.982 211.216,-54.619 v 0 c 318.162,-113.987 576.653,-362.53 703.035,-676.147 v 0 c 39.126,-97.091 65.167,-197.531 77.753,-301.488 v 0 c 3.807,-31.446 6.691,-62.966 7.844,-94.583 v 0 c 2.404,-65.93 0.451,-131.719 -7.868,-197.266 v 0 c -4.915,-38.715 -11.335,-77.131 -19.871,-115.209 v 0 C 3142.94,1591.604 3075.874,1444.299 2978.508,1310.76 v 0 c -46.119,-63.254 -97.994,-121.398 -155.679,-174.345 v 0 c -2.316,-2.125 -5.482,-3.759 -5.906,-7.297 v 0 c 10.498,-12.154 33.637,-34.78 40.874,-39.827 v 0 c 2.602,2.228 5.48,4.45 8.079,6.959 v 0 c 13.245,12.779 26.684,25.368 39.575,38.497 v 0 c 150.248,153.035 255.2,332.54 314.077,538.813 v 0 c 18.205,63.783 30.841,128.71 38.451,194.64 v 0 c 3.971,34.397 6.828,68.874 7.771,103.447 v 0 c 1.004,36.786 0.971,73.587 -1.159,110.388 v 0 c -2.469,42.655 -6.799,85.062 -13.327,127.279 v 0 c -9.35,60.46 -23.087,119.895 -41.45,178.231 v 0 c -62.661,199.051 -168.246,372.048 -316.775,518.532 v 0 c -218.676,215.669 -503.865,341.194 -808.543,358.248 v 0 c -23.52,1.316 -47.035,1.983 -70.556,1.983 v 0 c -37.904,0 -75.809,-1.734 -113.664,-5.278 m -860.664,-469.595 h 4.199 6.449 l 4.191,4.902 c 1.04,1.216 2.046,2.387 3.026,3.528 v 0 c 2.068,2.407 4.021,4.682 5.976,7.009 v 0 c 68.427,81.408 145.383,153.092 228.729,213.058 v 0 c 83.631,60.173 176.088,110.266 274.8,148.891 v 0 c 72.477,28.358 149.388,49.941 228.594,64.15 v 0 c 32.886,5.899 67.56,10.516 106.005,14.117 v 0 c 36.977,3.462 74.78,5.217 112.359,5.217 v 0 c 23.042,0 46.517,-0.66 69.774,-1.962 v 0 c 150.201,-8.407 295.427,-43.219 431.641,-103.468 v 0 c 136.661,-60.446 260.426,-144.817 367.854,-250.768 v 0 c 73.075,-72.07 136.485,-151.768 188.47,-236.883 v 0 c 51.943,-85.046 93.925,-177.866 124.78,-275.885 v 0 c 17.902,-56.871 31.686,-116.142 40.969,-176.168 v 0 c 6.252,-40.428 10.689,-82.803 13.187,-125.947 v 0 c 1.883,-32.556 2.257,-68.275 1.141,-109.199 v 0 c -0.858,-31.417 -3.371,-64.854 -7.684,-102.223 v 0 c -7.621,-66.012 -20.407,-130.745 -38.006,-192.402 v 0 c -28.943,-101.4 -69.789,-197.677 -121.406,-286.159 v 0 c -51.485,-88.258 -115.14,-171.257 -189.199,-246.689 v 0 c -9.381,-9.553 -19.298,-19.049 -28.888,-28.231 v 0 c -2.98,-2.853 -5.96,-5.706 -8.932,-8.567 v 0 c -6.356,5.84 -14.825,14.134 -21.889,21.529 v 0 c 56.63,52.397 108.448,110.656 154.07,173.226 v 0 c 49.092,67.333 91.042,139.038 124.682,213.125 v 0 c 33.752,74.33 60.084,153.135 78.264,234.226 v 0 c 8.235,36.731 14.809,74.841 20.098,116.51 v 0 c 7.971,62.795 10.577,128.064 7.971,199.537 v 0 c -1.061,29.086 -3.657,60.407 -7.936,95.756 v 0 c -12.613,104.173 -39.079,206.804 -78.667,305.039 v 0 c -31.628,78.486 -71.944,154.038 -119.828,224.557 v 0 c -47.302,69.663 -102.161,134.676 -163.053,193.236 v 0 c -60.887,58.554 -127.986,110.828 -199.432,155.368 v 0 c -72.313,45.08 -149.355,82.404 -228.984,110.933 v 0 c -69.414,24.869 -141.308,43.461 -213.687,55.256 v 0 c -35.652,5.811 -71.495,9.95 -106.535,12.301 v 0 c -25.828,1.735 -56.432,3.508 -87.582,3.508 v 0 c -5.884,0 -11.731,-0.065 -17.377,-0.191 v 0 c -43.395,-0.973 -83.073,-3.553 -121.302,-7.888 v 0 c -58.679,-6.654 -116.963,-17.611 -173.236,-32.568 v 0 c -56.461,-15.007 -112.474,-34.46 -166.484,-57.82 v 0 c -79.225,-34.264 -154.376,-76.64 -223.365,-125.952 v 0 c -68.687,-49.095 -133.162,-106.419 -191.633,-170.38 v 0 c -0.342,-0.374 -0.777,-0.819 -1.238,-1.289 v 0 c -3.082,-3.148 -7.741,-7.907 -10.184,-16.634 v 0 l -4.976,-17.774 h 18.458 5.188 3.966 4.362 c 68.986,-0.059 137.973,-0.115 206.959,-0.17 v 0 c 172.51,-0.141 350.893,-0.286 526.338,-0.467 v 0 c 76.411,-0.078 154.103,-0.257 229.239,-0.431 v 0 l 56.775,-0.13 c 27.152,-0.059 56.352,-0.484 85.912,-3.166 v 0 c 54.795,-4.97 107.054,-14.791 155.325,-29.188 v 0 c 51.157,-15.257 99.799,-36.236 144.576,-62.352 v 0 c 56.891,-33.183 106.992,-74.14 148.911,-121.736 v 0 c 41.363,-46.964 75.953,-101.745 102.808,-162.821 v 0 c 24.078,-54.76 41.346,-113.67 51.324,-175.09 v 0 c 7.911,-48.703 10.103,-97.591 6.514,-145.303 v 0 c -4.678,-62.207 -17.726,-121.778 -38.78,-177.057 v 0 c -21.265,-55.835 -51.303,-108.877 -89.279,-157.655 v 0 c -20.296,-26.067 -43.945,-50.234 -70.29,-71.832 v 0 c -24.959,-20.46 -53.219,-39.334 -83.998,-56.097 v 0 c -38.51,-20.974 -75.595,-35.277 -113.371,-43.723 v 0 c -21.956,-4.91 -43.78,-7.466 -64.847,-7.6 v 0 l -0.146,-10e-4 c -2.56,0 -2.84,0.346 -3.346,0.973 v 0 c -1.217,1.507 -2.461,2.688 -3.37,3.552 v 0 c -0.241,0.229 -0.485,0.458 -0.722,0.695 v 0 l -42.574,42.577 c -95.12,95.126 -193.341,193.353 -290.18,290.248 v 0 c 3.564,-0.01 7.127,-0.01 10.691,-0.01 v 0 c 5.6,0 10.261,0.011 14.669,0.036 v 0 c 50.66,0.292 100.102,18.345 139.218,50.836 v 0 c 39.24,32.594 65.834,77.871 74.882,127.489 v 0 c 10.828,59.388 -2.202,118.631 -36.69,166.816 v 0 c -16.144,22.555 -36.149,41.671 -59.458,56.814 v 0 c -23.508,15.272 -49.128,25.685 -76.146,30.951 v 0 c -15.07,2.937 -30.66,4.365 -47.658,4.367 v 0 c -128.007,0.01 -258.156,0.081 -384.021,0.15 v 0 l -98.583,0.052 h -8.733 c -16.787,0 -33.851,-0.023 -50.352,-0.046 v 0 c -16.491,-0.023 -33.544,-0.046 -50.312,-0.046 v 0 c -32.924,0 -59.538,0.094 -83.756,0.297 v 0 c -39.174,0.328 -76.917,6.541 -112.182,18.468 v 0 c -35.262,11.926 -69.057,29.905 -100.443,53.439 v 0 c -12.392,9.292 -24.755,20.082 -36.745,32.071 v 0 l -49.397,49.395 c -95.3,95.297 -190.598,190.591 -285.889,285.898 v 0 c 1.232,0 2.464,0 3.697,0 v 0 c 18.048,0 36.096,-0.014 54.144,-0.029 v 0 l 22.342,-0.017 140.254,-0.09 h 4.798 z M 876.465,2536.88 C 823.531,2421.317 788.819,2300.565 772.723,2174.431 v 0 c -5.457,-42.764 -8.757,-85.673 -9.898,-128.721 v 0 c -1.336,-50.444 0.582,-100.809 5.436,-151.072 v 0 c 3.61,-37.381 8.789,-74.506 15.614,-111.428 v 0 c 13.341,-72.169 32.746,-142.668 59.065,-211.155 v 0 c 97.017,-252.456 258.277,-453.76 483.294,-603.603 v 0 c 125.629,-83.658 262.569,-141.541 409.792,-175.012 v 0 c 42.001,-9.549 84.375,-16.811 127.135,-22.04 v 0 c 31.439,-3.843 62.964,-6.792 94.578,-7.836 v 0 c 20.132,-0.665 40.264,-1.072 60.391,-1.072 v 0 c 35.053,0 70.091,1.236 105.093,4.502 v 0 c 34.454,3.214 68.764,7.275 102.855,13.194 v 0 c 10.483,1.82 20.96,3.075 31.7,3.075 v 0 c 0.026,0 0.052,0 0.078,0 v 0 c 169.758,-0.101 339.524,-0.117 509.282,-0.117 v 0 c 80.923,0 161.839,0.003 242.763,0.004 v 0 c 1.6,0 3.201,-0.015 4.802,-0.015 v 0 c 1.712,0 3.425,0.017 5.135,0.088 v 0 c 0.091,0.003 0.184,0.005 0.278,0.005 v 0 c 0.229,0 0.466,-0.008 0.707,-0.008 v 0 c 1.112,0 2.287,0.169 3.001,2.073 v 0 c -1.61,4.235 -5.686,6.949 -8.955,10.218 v 0 c -444.025,444.088 -888.085,888.145 -1332.142,1332.203 v 0 c -2.081,2.081 -4.317,4.032 -6.226,6.262 v 0 c -2.555,2.986 -5.627,4.357 -9.308,4.358 v 0 c -0.479,0 -0.969,-0.023 -1.469,-0.07 v 0 c -0.523,-0.047 -1.048,-0.063 -1.574,-0.063 v 0 c -0.944,0 -1.891,0.049 -2.836,0.049 v 0 h -0.01 -8.478 c -40.707,0 -81.415,0 -122.124,0 v 0 c -77.208,0 -154.407,-0.011 -231.616,-0.078 v 0 c -8.435,-0.01 -16.917,-0.639 -25.297,-1.648 v 0 c -37.943,-4.571 -70.508,-20.522 -96.914,-48.061 v 0 c -37.087,-38.68 -52.843,-85.266 -47.459,-138.401 v 0 c 3.638,-35.891 19.009,-66.962 43.57,-93.398 v 0 c 5.008,-5.39 10.283,-10.535 15.488,-15.742 v 0 c 330.566,-330.574 661.137,-661.145 991.707,-991.716 v 0 c 2.863,-2.863 5.763,-5.692 8.557,-8.619 v 0 c 1.23,-1.287 2.239,-2.782 4.484,-5.616 v 0 c -3.447,-0.936 -5.104,-1.57 -6.818,-1.823 v 0 c -35.698,-5.27 -71.585,-8.974 -107.605,-10.642 v 0 c -21.813,-1.01 -43.621,-1.554 -65.413,-1.554 v 0 c -43.302,0 -86.553,2.151 -129.733,7.08 v 0 c -34.014,3.883 -67.81,8.932 -101.407,15.494 v 0 c -85.922,16.783 -169.094,42.512 -248.901,78.4 v 0 c -252.174,113.399 -443.834,292.121 -574.607,535.689 v 0 c -52.17,97.167 -88.924,200.169 -111.655,308.144 v 0 c -8.951,42.517 -15.635,85.354 -19.959,128.595 v 0 c -3.006,30.051 -4.996,60.154 -5.734,90.322 v 0 c -1.552,63.396 1.888,126.533 10.368,189.406 v 0 c 5.266,39.041 12.329,77.728 21.397,116.053 v 0 c 17.669,74.677 42.319,146.969 74.107,216.823 v 0 c 1.331,2.926 2.31,6.011 3.305,8.635 v 0 c -11.712,14.155 -36.832,38.858 -44.082,43.229 v 0 c -3.359,-7.356 -6.684,-14.654 -10.024,-21.945 m 1081.74,-1759.32 c -28.064,0.926 -57.723,3.385 -93.341,7.74 v 0 c -42.876,5.242 -85.179,12.576 -125.731,21.795 v 0 c -72.829,16.558 -143.689,39.407 -210.61,67.914 v 0 c -67.585,28.789 -133.032,64.149 -194.525,105.099 v 0 c -55.412,36.9 -107.61,77.52 -155.143,120.733 v 0 c -47.513,43.194 -91.7,90.191 -131.335,139.687 v 0 c -39.644,49.506 -75.848,102.903 -107.607,158.708 v 0 c -31.786,55.852 -60.014,115.688 -83.901,177.845 v 0 c -25.306,65.85 -44.942,136.058 -58.366,208.677 v 0 c -6.672,36.095 -11.869,73.182 -15.446,110.229 v 0 c -4.859,50.324 -6.668,100.573 -5.376,149.356 v 0 c 1.122,42.366 4.416,85.203 9.79,127.319 v 0 c 7.906,61.952 20.565,123.557 37.628,183.104 v 0 c 16.999,59.327 38.854,118.302 64.955,175.287 v 0 c 0.785,1.713 1.569,3.427 2.353,5.141 v 0 c 7.177,-6.792 15.983,-15.669 22.972,-23.442 v 0 c -31.896,-70.093 -57.124,-143.906 -74.983,-219.387 v 0 c -8.97,-37.914 -16.254,-77.415 -21.647,-117.405 v 0 c -8.526,-63.211 -12.056,-127.681 -10.49,-191.621 v 0 c 0.718,-29.337 2.67,-60.079 5.799,-91.372 v 0 c 4.321,-43.212 11.114,-86.979 20.19,-130.087 v 0 c 11.544,-54.838 26.793,-108.668 45.32,-159.994 v 0 c 18.853,-52.231 41.631,-103.334 67.7,-151.888 v 0 c 32.892,-61.261 70.136,-119.259 110.698,-172.383 v 0 c 40.587,-53.158 85.626,-102.916 133.868,-147.891 v 0 c 48.245,-44.981 101.035,-86.43 156.902,-123.196 v 0 c 55.841,-36.751 116.312,-69.845 179.732,-98.364 v 0 c 78.674,-35.379 163.446,-62.083 251.959,-79.373 v 0 c 32.846,-6.415 66.376,-11.538 102.504,-15.663 v 0 c 41.678,-4.757 85.861,-7.17 131.32,-7.17 v 0 c 21.337,0 43.563,0.527 66.06,1.569 v 0 c 34.801,1.611 71.475,5.237 109.004,10.777 v 0 c 2.066,0.305 3.782,0.812 5.598,1.349 v 0 c 0.815,0.241 1.738,0.514 2.841,0.813 v 0 l 20.488,5.561 -13.18,16.641 c -0.743,0.939 -1.341,1.719 -1.853,2.39 v 0 c -1.16,1.514 -2.162,2.823 -3.48,4.202 v 0 c -2.199,2.304 -4.431,4.522 -6.59,6.667 v 0 c -0.732,0.728 -1.464,1.455 -2.194,2.185 v 0 l -134.015,134.016 c -285.898,285.898 -571.797,571.797 -857.691,857.7 v 0 c -1.061,1.061 -2.123,2.118 -3.187,3.177 v 0 c -4.184,4.163 -8.135,8.095 -11.945,12.195 v 0 c -23.277,25.055 -36.701,53.747 -39.897,85.281 v 0 c -2.481,24.483 -0.085,47.592 7.122,68.681 v 0 c 7.236,21.173 19.521,40.894 36.514,58.618 v 0 c 23.876,24.901 53.646,39.655 88.482,43.851 v 0 c 8.586,1.034 16.317,1.54 23.635,1.547 v 0 c 79.698,0.07 158.413,0.079 231.604,0.079 v 0 l 61.061,-10e-4 h 61.063 8.484 c 0.351,0 0.702,-0.011 1.054,-0.021 v 0 c 0.594,-0.015 1.189,-0.029 1.782,-0.029 v 0 c 0.792,0 1.529,0.023 2.237,0.073 v 0 c 1.585,-1.788 3.195,-3.329 4.631,-4.704 v 0 c 0.607,-0.581 1.216,-1.162 1.81,-1.756 v 0 l 35.43,-35.43 C 2129.483,1661.159 2564.941,1225.702 2993.433,797.15 v 0 l -99.135,-0.002 -127.16,-0.002 c -161.487,0 -334.952,0.014 -509.282,0.116 v 0 h -0.078 c -10.37,0 -21.204,-1.042 -34.094,-3.28 v 0 c -30.18,-5.24 -62.516,-9.387 -101.762,-13.049 v 0 c -32.03,-2.988 -65.981,-4.441 -103.792,-4.441 v 0 c -18.628,0 -38.231,0.348 -59.929,1.065"
         id="path586" />
    </clipPath>
    <linearGradient
       x1="0"
       y1="0"
       x2="1"
       y2="0"
       gradientUnits="userSpaceOnUse"
       gradientTransform="matrix(0,-2503.8159,-2503.8159,0,2014.4,3266.3081)"
       spreadMethod="pad"
       id="linearGradient604">
      <stop
         style="stop-opacity:1;stop-color:#92d7eb"
         offset="0"
         id="stop594" />
      <stop
         style="stop-opacity:1;stop-color:#92d7eb"
         offset="0.16341567"
         id="stop596" />
      <stop
         style="stop-opacity:1;stop-color:#d97b86"
         offset="0.490679"
         id="stop598" />
      <stop
         style="stop-opacity:1;stop-color:#fff6c4"
         offset="0.73206222"
         id="stop600" />
      <stop
         style="stop-opacity:1;stop-color:#fff6c4"
         offset="1"
         id="stop602" />
    </linearGradient>
    <clipPath
       clipPathUnits="userSpaceOnUse"
       id="clipPath562">
      <path
         d="m 1900.276,3261.03 c -35.93,-3.365 -71.68,-7.91 -107.172,-14.276 v 0 c -79.142,-14.197 -156.313,-35.582 -231.223,-64.893 v 0 c -200.893,-78.605 -370.396,-200.906 -509.145,-365.978 v 0 c -2.828,-3.365 -5.71,-6.686 -8.925,-10.447 v 0 c -4.404,0 -8.791,0 -13.18,0 v 0 c -46.751,0.029 -93.503,0.06 -140.254,0.091 v 0 c -34.236,0.022 -68.471,0.066 -102.706,0.033 v 0 c -0.492,-10e-4 -0.992,0.021 -1.501,0.042 v 0 c -2.32,0.096 -4.812,0.192 -7.444,-1.769 v 0 c 2.885,-3.117 5.243,-5.842 7.785,-8.384 v 0 c 116.344,-116.366 232.704,-232.716 349.062,-349.069 v 0 c 11.991,-11.991 24.674,-23.198 38.244,-33.372 v 0 c 65.454,-49.078 139.196,-74.023 220.907,-74.706 v 0 c 44.731,-0.375 89.466,-0.314 134.201,-0.253 v 0 c 19.688,0.027 39.375,0.055 59.063,0.044 v 0 c 160.869,-0.082 321.738,-0.189 482.608,-0.202 v 0 c 15.145,0 30.111,-1.209 44.982,-4.108 v 0 c 101.857,-19.85 182.806,-119.833 161.198,-238.327 v 0 c -17.516,-96.065 -102.492,-166.274 -200.406,-166.837 v 0 c -8.976,-0.052 -17.953,-0.039 -26.929,-0.025 v 0 c -7.59,0.012 -15.179,0.024 -22.767,0 v 0 c -0.376,-10e-4 -0.765,0.023 -1.158,0.048 v 0 c -1.743,0.108 -3.599,0.217 -5.071,-1.942 v 0 c 1.683,-4.014 5.351,-6.6 8.377,-9.628 v 0 c 115.019,-115.088 230.073,-230.142 345.123,-345.199 v 0 c 1.04,-1.042 2.18,-2.004 3.099,-3.144 v 0 c 3.743,-4.635 8.378,-6.214 14.453,-6.175 v 0 c 22.932,0.144 45.503,2.943 67.833,7.936 v 0 c 41.238,9.221 80.001,24.933 117.013,45.091 v 0 c 61.481,33.486 115.445,76.147 158.637,131.623 v 0 c 78.434,100.74 121.42,215.233 130.974,342.263 v 0 c 3.738,49.7 1.344,99.347 -6.657,148.598 v 0 c -10.014,61.649 -27.169,121.266 -52.326,178.48 v 0 c -54.738,124.486 -139.749,222.346 -257.482,291.016 v 0 c -94.494,55.114 -197.284,83.556 -305.689,93.389 v 0 c -28.993,2.63 -58.061,3.159 -87.146,3.224 v 0 c -95.343,0.211 -190.686,0.461 -286.03,0.559 v 0 c -244.433,0.253 -488.867,0.431 -733.3,0.638 v 0 c -4.02,0 -8.039,0 -13.528,0 v 0 c 1.79,6.397 5.408,9.117 8.273,12.252 v 0 c 115.916,126.799 252.519,224.723 410.223,292.929 v 0 c 107.426,46.461 219.387,76.134 335.74,89.327 v 0 c 39.91,4.524 79.926,6.901 120.039,7.801 v 0 c 34.613,0.777 69.166,-0.969 103.707,-3.288 v 0 c 35.28,-2.368 70.354,-6.468 105.22,-12.15 v 0 c 72.056,-11.744 142.455,-29.983 211.217,-54.619 v 0 c 318.161,-113.987 576.652,-362.53 703.034,-676.147 v 0 c 39.126,-97.091 65.167,-197.531 77.753,-301.488 v 0 c 3.807,-31.446 6.691,-62.966 7.844,-94.583 v 0 c 2.404,-65.93 0.451,-131.718 -7.868,-197.266 v 0 c -4.914,-38.715 -11.334,-77.131 -19.871,-115.209 v 0 c -36.167,-161.326 -103.233,-308.631 -200.599,-442.17 v 0 c -46.119,-63.254 -97.994,-121.398 -155.679,-174.345 v 0 c -2.316,-2.125 -5.482,-3.759 -5.906,-7.297 v 0 c 10.498,-12.154 33.638,-34.78 40.874,-39.827 v 0 c 2.601,2.228 5.48,4.45 8.079,6.958 v 0 c 13.245,12.78 26.685,25.37 39.575,38.498 v 0 c 150.248,153.035 255.2,332.54 314.077,538.813 v 0 c 18.206,63.783 30.841,128.71 38.451,194.64 v 0 c 3.971,34.396 6.828,68.874 7.771,103.447 v 0 c 1.004,36.786 0.971,73.587 -1.159,110.388 v 0 c -2.469,42.655 -6.799,85.062 -13.327,127.279 v 0 c -9.35,60.46 -23.087,119.895 -41.451,178.231 v 0 c -62.66,199.051 -168.245,372.048 -316.773,518.532 v 0 c -218.677,215.669 -503.866,341.194 -808.544,358.248 v 0 c -23.516,1.316 -47.035,1.983 -70.553,1.983 v 0 c -37.907,0 -75.808,-1.734 -113.667,-5.278 M 876.465,2536.88 C 823.531,2421.317 788.819,2300.565 772.723,2174.431 v 0 c -5.457,-42.764 -8.757,-85.673 -9.898,-128.721 v 0 c -1.336,-50.444 0.582,-100.809 5.436,-151.072 v 0 c 3.61,-37.381 8.789,-74.505 15.614,-111.428 v 0 c 13.341,-72.169 32.746,-142.668 59.064,-211.154 v 0 c 97.018,-252.457 258.278,-453.761 483.295,-603.604 v 0 c 125.629,-83.658 262.569,-141.541 409.792,-175.012 v 0 c 42.001,-9.549 84.375,-16.811 127.135,-22.04 v 0 c 31.439,-3.844 62.964,-6.792 94.578,-7.836 v 0 c 55.195,-1.823 110.385,-1.711 165.484,3.43 v 0 c 34.454,3.214 68.764,7.275 102.855,13.194 v 0 c 10.508,1.825 21.011,3.081 31.778,3.075 v 0 c 250.682,-0.148 501.363,-0.115 752.045,-0.113 v 0 c 3.313,0 6.629,-0.063 9.937,0.073 v 0 c 0.201,0.008 0.412,0.004 0.626,0 v 0 c 1.211,-0.02 2.568,-0.04 3.36,2.07 v 0 c -1.61,4.235 -5.686,6.948 -8.955,10.218 v 0 c -444.025,444.088 -888.084,888.145 -1332.142,1332.203 v 0 c -2.081,2.081 -4.317,4.032 -6.226,6.262 v 0 c -2.888,3.374 -6.435,4.688 -10.777,4.288 v 0 c -1.46,-0.133 -2.944,-0.014 -4.416,-0.014 v 0 c -22.998,0 -45.996,0 -68.994,0 v 0 c -97.741,0 -195.483,0.01 -293.224,-0.076 v 0 c -8.435,-0.01 -16.917,-0.639 -25.297,-1.648 v 0 c -37.943,-4.57 -70.508,-20.523 -96.914,-48.061 v 0 c -37.087,-38.68 -52.843,-85.266 -47.458,-138.4 v 0 c 3.637,-35.892 19.008,-66.963 43.569,-93.399 v 0 c 5.008,-5.39 10.283,-10.535 15.488,-15.742 v 0 c 330.566,-330.574 661.137,-661.145 991.707,-991.716 v 0 c 2.863,-2.863 5.763,-5.692 8.558,-8.62 v 0 c 1.228,-1.286 2.238,-2.781 4.483,-5.615 v 0 c -3.447,-0.936 -5.104,-1.57 -6.818,-1.823 v 0 c -35.698,-5.27 -71.585,-8.974 -107.605,-10.642 v 0 c -65.158,-3.016 -130.235,-1.884 -195.146,5.526 v 0 c -34.014,3.883 -67.81,8.932 -101.407,15.494 v 0 c -85.922,16.783 -169.094,42.512 -248.901,78.4 v 0 c -252.174,113.399 -443.834,292.121 -574.608,535.688 v 0 c -52.169,97.168 -88.923,200.17 -111.655,308.145 v 0 c -8.95,42.517 -15.634,85.353 -19.958,128.595 v 0 c -3.006,30.051 -4.996,60.154 -5.734,90.322 v 0 c -1.552,63.396 1.888,126.533 10.368,189.406 v 0 c 5.265,39.041 12.329,77.728 21.397,116.053 v 0 c 17.669,74.677 42.319,146.969 74.107,216.823 v 0 c 1.331,2.926 2.309,6.011 3.305,8.635 v 0 c -11.712,14.155 -36.832,38.858 -44.082,43.229 v 0 c -3.359,-7.357 -6.684,-14.654 -10.024,-21.945"
         id="path560" />
    </clipPath>
    <clipPath
       clipPathUnits="userSpaceOnUse"
       id="clipPath134">
      <path
         d="M 0,4028.8 H 4028.8 V 0 H 0 Z"
         id="path132" />
    </clipPath>
    <linearGradient
       inkscape:collect="always"
       xlink:href="#linearGradient464"
       id="linearGradient2383"
       gradientUnits="userSpaceOnUse"
       gradientTransform="matrix(0,-2503.8162,-2503.8162,0,2014.4,3266.3081)"
       x1="0"
       y1="0"
       x2="1"
       y2="0"
       spreadMethod="pad" />
  </defs>
  <g
     inkscape:groupmode="layer"
     id="layer2"
     inkscape:label="Layer 2">
    <g
       id="g128"
       style="display:inline"
       transform="matrix(0.03511745,0,0,-0.03511745,-0.85523494,150.44801)">
      <g
         id="g130"
         clip-path="url(#clipPath134)">
        <g
           id="g136"
           transform="translate(3982.5237,2014.4)">
          <path
             d="m 0,0 c 0,-1086.965 -881.159,-1968.124 -1968.124,-1968.124 -1086.964,0 -1968.124,881.159 -1968.124,1968.124 0,1086.965 881.16,1968.124 1968.124,1968.124 C -881.159,1968.124 0,1086.965 0,0"
             style="fill:#1a3764;fill-opacity:1;fill-rule:nonzero;stroke:none"
             id="path138" />
        </g>
      </g>
    </g>
    <g
       id="g556"
       style="display:inline"
       transform="matrix(0.03511745,0,0,-0.03511745,-0.85523494,150.44801)">
      <g
         id="g558"
         clip-path="url(#clipPath562)">
        <g
           id="g564">
          <g
             id="g566">
            <path
               d="m 1900.276,3261.03 c -35.93,-3.365 -71.68,-7.91 -107.172,-14.276 v 0 c -79.142,-14.197 -156.313,-35.582 -231.223,-64.893 v 0 c -200.893,-78.605 -370.396,-200.906 -509.145,-365.978 v 0 c -2.828,-3.365 -5.71,-6.686 -8.925,-10.447 v 0 c -4.404,0 -8.791,0 -13.18,0 v 0 c -46.751,0.029 -93.503,0.06 -140.254,0.091 v 0 c -34.236,0.022 -68.471,0.066 -102.706,0.033 v 0 c -0.492,-10e-4 -0.992,0.021 -1.501,0.042 v 0 c -2.32,0.096 -4.812,0.192 -7.444,-1.769 v 0 c 2.885,-3.117 5.243,-5.842 7.785,-8.384 v 0 c 116.344,-116.366 232.704,-232.716 349.062,-349.069 v 0 c 11.991,-11.991 24.674,-23.198 38.244,-33.372 v 0 c 65.454,-49.078 139.196,-74.023 220.907,-74.706 v 0 c 44.731,-0.375 89.466,-0.314 134.201,-0.253 v 0 c 19.688,0.027 39.375,0.055 59.063,0.044 v 0 c 160.869,-0.082 321.738,-0.189 482.608,-0.202 v 0 c 15.145,0 30.111,-1.209 44.982,-4.108 v 0 c 101.857,-19.85 182.806,-119.833 161.198,-238.327 v 0 c -17.516,-96.065 -102.492,-166.274 -200.406,-166.837 v 0 c -8.976,-0.052 -17.953,-0.039 -26.929,-0.025 v 0 c -7.59,0.012 -15.179,0.024 -22.767,0 v 0 c -0.376,-10e-4 -0.765,0.023 -1.158,0.048 v 0 c -1.743,0.108 -3.599,0.217 -5.071,-1.942 v 0 c 1.683,-4.014 5.351,-6.6 8.377,-9.628 v 0 c 115.019,-115.088 230.073,-230.142 345.123,-345.199 v 0 c 1.04,-1.042 2.18,-2.004 3.099,-3.144 v 0 c 3.743,-4.635 8.378,-6.214 14.453,-6.175 v 0 c 22.932,0.144 45.503,2.943 67.833,7.936 v 0 c 41.238,9.221 80.001,24.933 117.013,45.091 v 0 c 61.481,33.486 115.445,76.147 158.637,131.623 v 0 c 78.434,100.74 121.42,215.233 130.974,342.263 v 0 c 3.738,49.7 1.344,99.347 -6.657,148.598 v 0 c -10.014,61.649 -27.169,121.266 -52.326,178.48 v 0 c -54.738,124.486 -139.749,222.346 -257.482,291.016 v 0 c -94.494,55.114 -197.284,83.556 -305.689,93.389 v 0 c -28.993,2.63 -58.061,3.159 -87.146,3.224 v 0 c -95.343,0.211 -190.686,0.461 -286.03,0.559 v 0 c -244.433,0.253 -488.867,0.431 -733.3,0.638 v 0 c -4.02,0 -8.039,0 -13.528,0 v 0 c 1.79,6.397 5.408,9.117 8.273,12.252 v 0 c 115.916,126.799 252.519,224.723 410.223,292.929 v 0 c 107.426,46.461 219.387,76.134 335.74,89.327 v 0 c 39.91,4.524 79.926,6.901 120.039,7.801 v 0 c 34.613,0.777 69.166,-0.969 103.707,-3.288 v 0 c 35.28,-2.368 70.354,-6.468 105.22,-12.15 v 0 c 72.056,-11.744 142.455,-29.983 211.217,-54.619 v 0 c 318.161,-113.987 576.652,-362.53 703.034,-676.147 v 0 c 39.126,-97.091 65.167,-197.531 77.753,-301.488 v 0 c 3.807,-31.446 6.691,-62.966 7.844,-94.583 v 0 c 2.404,-65.93 0.451,-131.718 -7.868,-197.266 v 0 c -4.914,-38.715 -11.334,-77.131 -19.871,-115.209 v 0 c -36.167,-161.326 -103.233,-308.631 -200.599,-442.17 v 0 c -46.119,-63.254 -97.994,-121.398 -155.679,-174.345 v 0 c -2.316,-2.125 -5.482,-3.759 -5.906,-7.297 v 0 c 10.498,-12.154 33.638,-34.78 40.874,-39.827 v 0 c 2.601,2.228 5.48,4.45 8.079,6.958 v 0 c 13.245,12.78 26.685,25.37 39.575,38.498 v 0 c 150.248,153.035 255.2,332.54 314.077,538.813 v 0 c 18.206,63.783 30.841,128.71 38.451,194.64 v 0 c 3.971,34.396 6.828,68.874 7.771,103.447 v 0 c 1.004,36.786 0.971,73.587 -1.159,110.388 v 0 c -2.469,42.655 -6.799,85.062 -13.327,127.279 v 0 c -9.35,60.46 -23.087,119.895 -41.451,178.231 v 0 c -62.66,199.051 -168.245,372.048 -316.773,518.532 v 0 c -218.677,215.669 -503.866,341.194 -808.544,358.248 v 0 c -23.516,1.316 -47.035,1.983 -70.553,1.983 v 0 c -37.907,0 -75.808,-1.734 -113.667,-5.278 M 876.465,2536.88 C 823.531,2421.317 788.819,2300.565 772.723,2174.431 v 0 c -5.457,-42.764 -8.757,-85.673 -9.898,-128.721 v 0 c -1.336,-50.444 0.582,-100.809 5.436,-151.072 v 0 c 3.61,-37.381 8.789,-74.505 15.614,-111.428 v 0 c 13.341,-72.169 32.746,-142.668 59.064,-211.154 v 0 c 97.018,-252.457 258.278,-453.761 483.295,-603.604 v 0 c 125.629,-83.658 262.569,-141.541 409.792,-175.012 v 0 c 42.001,-9.549 84.375,-16.811 127.135,-22.04 v 0 c 31.439,-3.844 62.964,-6.792 94.578,-7.836 v 0 c 55.195,-1.823 110.385,-1.711 165.484,3.43 v 0 c 34.454,3.214 68.764,7.275 102.855,13.194 v 0 c 10.508,1.825 21.011,3.081 31.778,3.075 v 0 c 250.682,-0.148 501.363,-0.115 752.045,-0.113 v 0 c 3.313,0 6.629,-0.063 9.937,0.073 v 0 c 0.201,0.008 0.412,0.004 0.626,0 v 0 c 1.211,-0.02 2.568,-0.04 3.36,2.07 v 0 c -1.61,4.235 -5.686,6.948 -8.955,10.218 v 0 c -444.025,444.088 -888.084,888.145 -1332.142,1332.203 v 0 c -2.081,2.081 -4.317,4.032 -6.226,6.262 v 0 c -2.888,3.374 -6.435,4.688 -10.777,4.288 v 0 c -1.46,-0.133 -2.944,-0.014 -4.416,-0.014 v 0 c -22.998,0 -45.996,0 -68.994,0 v 0 c -97.741,0 -195.483,0.01 -293.224,-0.076 v 0 c -8.435,-0.01 -16.917,-0.639 -25.297,-1.648 v 0 c -37.943,-4.57 -70.508,-20.523 -96.914,-48.061 v 0 c -37.087,-38.68 -52.843,-85.266 -47.458,-138.4 v 0 c 3.637,-35.892 19.008,-66.963 43.569,-93.399 v 0 c 5.008,-5.39 10.283,-10.535 15.488,-15.742 v 0 c 330.566,-330.574 661.137,-661.145 991.707,-991.716 v 0 c 2.863,-2.863 5.763,-5.692 8.558,-8.62 v 0 c 1.228,-1.286 2.238,-2.781 4.483,-5.615 v 0 c -3.447,-0.936 -5.104,-1.57 -6.818,-1.823 v 0 c -35.698,-5.27 -71.585,-8.974 -107.605,-10.642 v 0 c -65.158,-3.016 -130.235,-1.884 -195.146,5.526 v 0 c -34.014,3.883 -67.81,8.932 -101.407,15.494 v 0 c -85.922,16.783 -169.094,42.512 -248.901,78.4 v 0 c -252.174,113.399 -443.834,292.121 -574.608,535.688 v 0 c -52.169,97.168 -88.923,200.17 -111.655,308.145 v 0 c -8.95,42.517 -15.634,85.353 -19.958,128.595 v 0 c -3.006,30.051 -4.996,60.154 -5.734,90.322 v 0 c -1.552,63.396 1.888,126.533 10.368,189.406 v 0 c 5.265,39.041 12.329,77.728 21.397,116.053 v 0 c 17.669,74.677 42.319,146.969 74.107,216.823 v 0 c 1.331,2.926 2.309,6.011 3.305,8.635 v 0 c -11.712,14.155 -36.832,38.858 -44.082,43.229 v 0 c -3.359,-7.357 -6.684,-14.654 -10.024,-21.945"
               style="fill:url(#linearGradient2383);stroke:none"
               id="path580" />
          </g>
        </g>
      </g>
    </g>
    <g
       id="g582"
       style="display:inline"
       transform="matrix(0.03511745,0,0,-0.03511745,-0.85523494,150.44801)">
      <g
         id="g584"
         clip-path="url(#clipPath588)">
        <g
           id="g590">
          <g
             id="g592">
            <path
               d="m 1900.276,3261.03 c -35.93,-3.365 -71.68,-7.91 -107.172,-14.277 v 0 c -79.142,-14.197 -156.312,-35.581 -231.223,-64.892 v 0 c -200.893,-78.605 -370.396,-200.906 -509.145,-365.978 v 0 c -2.828,-3.365 -5.71,-6.686 -8.925,-10.447 v 0 c -2.803,0 -5.598,0 -8.391,0 v 0 c -1.597,0 -3.192,0 -4.788,0 v 0 c -46.752,0.03 -93.504,0.06 -140.255,0.091 v 0 c -25.499,0.016 -50.997,0.045 -76.495,0.045 v 0 c -8.737,0 -17.475,0 -26.211,-0.012 v 0 h -0.018 c -0.971,0 -1.975,0.083 -3.01,0.083 v 0 c -1.876,0 -3.854,-0.273 -5.917,-1.81 v 0 c 2.885,-3.117 5.243,-5.842 7.785,-8.384 v 0 c 116.344,-116.366 232.704,-232.716 349.062,-349.069 v 0 c 11.991,-11.992 24.675,-23.198 38.244,-33.372 v 0 c 65.454,-49.078 139.196,-74.023 220.907,-74.706 v 0 c 27.958,-0.234 55.913,-0.298 83.873,-0.298 v 0 c 33.555,0 67.109,0.092 100.664,0.092 v 0 c 2.906,0 5.821,0 8.727,0 v 0 c 160.869,-0.082 321.738,-0.189 482.609,-0.202 v 0 c 15.144,0 30.11,-1.209 44.98,-4.108 v 0 c 101.858,-19.85 182.806,-119.833 161.199,-238.327 v 0 c -17.516,-96.065 -102.492,-166.273 -200.407,-166.837 v 0 c -4.862,-0.028 -9.724,-0.037 -14.588,-0.037 v 0 c -8.205,0 -16.408,0.026 -24.613,0.026 v 0 c -3.497,0 -6.997,0 -10.494,-0.018 v 0 h -0.029 c -0.733,0 -1.509,0.096 -2.286,0.096 v 0 c -1.381,0 -2.765,-0.304 -3.914,-1.99 v 0 c 1.683,-4.014 5.351,-6.6 8.377,-9.628 v 0 c 115.019,-115.088 230.073,-230.142 345.122,-345.199 v 0 c 1.041,-1.042 2.181,-2.004 3.1,-3.144 v 0 c 3.698,-4.579 8.268,-6.177 14.238,-6.177 v 0 c 0.071,0 0.143,0 0.215,0 v 0 c 22.932,0.144 45.503,2.943 67.833,7.936 v 0 c 41.238,9.221 80.001,24.933 117.013,45.091 v 0 c 61.481,33.486 115.444,76.147 158.637,131.623 v 0 c 78.435,100.74 121.42,215.233 130.974,342.263 v 0 c 3.738,49.7 1.344,99.347 -6.657,148.598 v 0 c -10.014,61.649 -27.169,121.266 -52.326,178.48 v 0 c -54.739,124.486 -139.749,222.346 -257.482,291.016 v 0 c -94.494,55.114 -197.284,83.556 -305.689,93.389 v 0 c -28.993,2.63 -58.061,3.159 -87.146,3.224 v 0 c -95.343,0.213 -190.686,0.461 -286.03,0.56 v 0 c -244.433,0.252 -488.867,0.43 -733.3,0.637 v 0 c -1.436,0 -2.871,0 -4.374,0 v 0 c -2.704,0 -5.626,0 -9.154,0 v 0 c 1.79,6.397 5.408,9.117 8.273,12.252 v 0 c 115.916,126.799 252.519,224.723 410.223,292.929 v 0 c 107.426,46.461 219.387,76.134 335.74,89.327 v 0 c 39.91,4.524 79.927,6.902 120.039,7.801 v 0 c 5.689,0.128 11.376,0.187 17.062,0.187 v 0 c 28.908,0 57.781,-1.537 86.645,-3.475 v 0 c 35.28,-2.368 70.354,-6.468 105.22,-12.15 v 0 c 72.056,-11.744 142.455,-29.982 211.216,-54.619 v 0 c 318.162,-113.987 576.653,-362.53 703.035,-676.147 v 0 c 39.126,-97.091 65.167,-197.531 77.753,-301.488 v 0 c 3.807,-31.446 6.691,-62.966 7.844,-94.583 v 0 c 2.404,-65.93 0.451,-131.719 -7.868,-197.266 v 0 c -4.915,-38.715 -11.335,-77.131 -19.871,-115.209 v 0 C 3142.94,1591.604 3075.874,1444.299 2978.508,1310.76 v 0 c -46.119,-63.254 -97.994,-121.398 -155.679,-174.345 v 0 c -2.316,-2.125 -5.482,-3.759 -5.906,-7.297 v 0 c 10.498,-12.154 33.637,-34.78 40.874,-39.827 v 0 c 2.602,2.228 5.48,4.45 8.079,6.959 v 0 c 13.245,12.779 26.684,25.368 39.575,38.497 v 0 c 150.248,153.035 255.2,332.54 314.077,538.813 v 0 c 18.205,63.783 30.841,128.71 38.451,194.64 v 0 c 3.971,34.397 6.828,68.874 7.771,103.447 v 0 c 1.004,36.786 0.971,73.587 -1.159,110.388 v 0 c -2.469,42.655 -6.799,85.062 -13.327,127.279 v 0 c -9.35,60.46 -23.087,119.895 -41.45,178.231 v 0 c -62.661,199.051 -168.246,372.048 -316.775,518.532 v 0 c -218.676,215.669 -503.865,341.194 -808.543,358.248 v 0 c -23.52,1.316 -47.035,1.983 -70.556,1.983 v 0 c -37.904,0 -75.809,-1.734 -113.664,-5.278 m -860.664,-469.595 h 4.199 6.449 l 4.191,4.902 c 1.04,1.216 2.046,2.387 3.026,3.528 v 0 c 2.068,2.407 4.021,4.682 5.976,7.009 v 0 c 68.427,81.408 145.383,153.092 228.729,213.058 v 0 c 83.631,60.173 176.088,110.266 274.8,148.891 v 0 c 72.477,28.358 149.388,49.941 228.594,64.15 v 0 c 32.886,5.899 67.56,10.516 106.005,14.117 v 0 c 36.977,3.462 74.78,5.217 112.359,5.217 v 0 c 23.042,0 46.517,-0.66 69.774,-1.962 v 0 c 150.201,-8.407 295.427,-43.219 431.641,-103.468 v 0 c 136.661,-60.446 260.426,-144.817 367.854,-250.768 v 0 c 73.075,-72.07 136.485,-151.768 188.47,-236.883 v 0 c 51.943,-85.046 93.925,-177.866 124.78,-275.885 v 0 c 17.902,-56.871 31.686,-116.142 40.969,-176.168 v 0 c 6.252,-40.428 10.689,-82.803 13.187,-125.947 v 0 c 1.883,-32.556 2.257,-68.275 1.141,-109.199 v 0 c -0.858,-31.417 -3.371,-64.854 -7.684,-102.223 v 0 c -7.621,-66.012 -20.407,-130.745 -38.006,-192.402 v 0 c -28.943,-101.4 -69.789,-197.677 -121.406,-286.159 v 0 c -51.485,-88.258 -115.14,-171.257 -189.199,-246.689 v 0 c -9.381,-9.553 -19.298,-19.049 -28.888,-28.231 v 0 c -2.98,-2.853 -5.96,-5.706 -8.932,-8.567 v 0 c -6.356,5.84 -14.825,14.134 -21.889,21.529 v 0 c 56.63,52.397 108.448,110.656 154.07,173.226 v 0 c 49.092,67.333 91.042,139.038 124.682,213.125 v 0 c 33.752,74.33 60.084,153.135 78.264,234.226 v 0 c 8.235,36.731 14.809,74.841 20.098,116.51 v 0 c 7.971,62.795 10.577,128.064 7.971,199.537 v 0 c -1.061,29.086 -3.657,60.407 -7.936,95.756 v 0 c -12.613,104.173 -39.079,206.804 -78.667,305.039 v 0 c -31.628,78.486 -71.944,154.038 -119.828,224.557 v 0 c -47.302,69.663 -102.161,134.676 -163.053,193.236 v 0 c -60.887,58.554 -127.986,110.828 -199.432,155.368 v 0 c -72.313,45.08 -149.355,82.404 -228.984,110.933 v 0 c -69.414,24.869 -141.308,43.461 -213.687,55.256 v 0 c -35.652,5.811 -71.495,9.95 -106.535,12.301 v 0 c -25.828,1.735 -56.432,3.508 -87.582,3.508 v 0 c -5.884,0 -11.731,-0.065 -17.377,-0.191 v 0 c -43.395,-0.973 -83.073,-3.553 -121.302,-7.888 v 0 c -58.679,-6.654 -116.963,-17.611 -173.236,-32.568 v 0 c -56.461,-15.007 -112.474,-34.46 -166.484,-57.82 v 0 c -79.225,-34.264 -154.376,-76.64 -223.365,-125.952 v 0 c -68.687,-49.095 -133.162,-106.419 -191.633,-170.38 v 0 c -0.342,-0.374 -0.777,-0.819 -1.238,-1.289 v 0 c -3.082,-3.148 -7.741,-7.907 -10.184,-16.634 v 0 l -4.976,-17.774 h 18.458 5.188 3.966 4.362 c 68.986,-0.059 137.973,-0.115 206.959,-0.17 v 0 c 172.51,-0.141 350.893,-0.286 526.338,-0.467 v 0 c 76.411,-0.078 154.103,-0.257 229.239,-0.431 v 0 l 56.775,-0.13 c 27.152,-0.059 56.352,-0.484 85.912,-3.166 v 0 c 54.795,-4.97 107.054,-14.791 155.325,-29.188 v 0 c 51.157,-15.257 99.799,-36.236 144.576,-62.352 v 0 c 56.891,-33.183 106.992,-74.14 148.911,-121.736 v 0 c 41.363,-46.964 75.953,-101.745 102.808,-162.821 v 0 c 24.078,-54.76 41.346,-113.67 51.324,-175.09 v 0 c 7.911,-48.703 10.103,-97.591 6.514,-145.303 v 0 c -4.678,-62.207 -17.726,-121.778 -38.78,-177.057 v 0 c -21.265,-55.835 -51.303,-108.877 -89.279,-157.655 v 0 c -20.296,-26.067 -43.945,-50.234 -70.29,-71.832 v 0 c -24.959,-20.46 -53.219,-39.334 -83.998,-56.097 v 0 c -38.51,-20.974 -75.595,-35.277 -113.371,-43.723 v 0 c -21.956,-4.91 -43.78,-7.466 -64.847,-7.6 v 0 l -0.146,-10e-4 c -2.56,0 -2.84,0.346 -3.346,0.973 v 0 c -1.217,1.507 -2.461,2.688 -3.37,3.552 v 0 c -0.241,0.229 -0.485,0.458 -0.722,0.695 v 0 l -42.574,42.577 c -95.12,95.126 -193.341,193.353 -290.18,290.248 v 0 c 3.564,-0.01 7.127,-0.01 10.691,-0.01 v 0 c 5.6,0 10.261,0.011 14.669,0.036 v 0 c 50.66,0.292 100.102,18.345 139.218,50.836 v 0 c 39.24,32.594 65.834,77.871 74.882,127.489 v 0 c 10.828,59.388 -2.202,118.631 -36.69,166.816 v 0 c -16.144,22.555 -36.149,41.671 -59.458,56.814 v 0 c -23.508,15.272 -49.128,25.685 -76.146,30.951 v 0 c -15.07,2.937 -30.66,4.365 -47.658,4.367 v 0 c -128.007,0.01 -258.156,0.081 -384.021,0.15 v 0 l -98.583,0.052 h -8.733 c -16.787,0 -33.851,-0.023 -50.352,-0.046 v 0 c -16.491,-0.023 -33.544,-0.046 -50.312,-0.046 v 0 c -32.924,0 -59.538,0.094 -83.756,0.297 v 0 c -39.174,0.328 -76.917,6.541 -112.182,18.468 v 0 c -35.262,11.926 -69.057,29.905 -100.443,53.439 v 0 c -12.392,9.292 -24.755,20.082 -36.745,32.071 v 0 l -49.397,49.395 c -95.3,95.297 -190.598,190.591 -285.889,285.898 v 0 c 1.232,0 2.464,0 3.697,0 v 0 c 18.048,0 36.096,-0.014 54.144,-0.029 v 0 l 22.342,-0.017 140.254,-0.09 h 4.798 z M 876.465,2536.88 C 823.531,2421.317 788.819,2300.565 772.723,2174.431 v 0 c -5.457,-42.764 -8.757,-85.673 -9.898,-128.721 v 0 c -1.336,-50.444 0.582,-100.809 5.436,-151.072 v 0 c 3.61,-37.381 8.789,-74.506 15.614,-111.428 v 0 c 13.341,-72.169 32.746,-142.668 59.065,-211.155 v 0 c 97.017,-252.456 258.277,-453.76 483.294,-603.603 v 0 c 125.629,-83.658 262.569,-141.541 409.792,-175.012 v 0 c 42.001,-9.549 84.375,-16.811 127.135,-22.04 v 0 c 31.439,-3.843 62.964,-6.792 94.578,-7.836 v 0 c 20.132,-0.665 40.264,-1.072 60.391,-1.072 v 0 c 35.053,0 70.091,1.236 105.093,4.502 v 0 c 34.454,3.214 68.764,7.275 102.855,13.194 v 0 c 10.483,1.82 20.96,3.075 31.7,3.075 v 0 c 0.026,0 0.052,0 0.078,0 v 0 c 169.758,-0.101 339.524,-0.117 509.282,-0.117 v 0 c 80.923,0 161.839,0.003 242.763,0.004 v 0 c 1.6,0 3.201,-0.015 4.802,-0.015 v 0 c 1.712,0 3.425,0.017 5.135,0.088 v 0 c 0.091,0.003 0.184,0.005 0.278,0.005 v 0 c 0.229,0 0.466,-0.008 0.707,-0.008 v 0 c 1.112,0 2.287,0.169 3.001,2.073 v 0 c -1.61,4.235 -5.686,6.949 -8.955,10.218 v 0 c -444.025,444.088 -888.085,888.145 -1332.142,1332.203 v 0 c -2.081,2.081 -4.317,4.032 -6.226,6.262 v 0 c -2.555,2.986 -5.627,4.357 -9.308,4.358 v 0 c -0.479,0 -0.969,-0.023 -1.469,-0.07 v 0 c -0.523,-0.047 -1.048,-0.063 -1.574,-0.063 v 0 c -0.944,0 -1.891,0.049 -2.836,0.049 v 0 h -0.01 -8.478 c -40.707,0 -81.415,0 -122.124,0 v 0 c -77.208,0 -154.407,-0.011 -231.616,-0.078 v 0 c -8.435,-0.01 -16.917,-0.639 -25.297,-1.648 v 0 c -37.943,-4.571 -70.508,-20.522 -96.914,-48.061 v 0 c -37.087,-38.68 -52.843,-85.266 -47.459,-138.401 v 0 c 3.638,-35.891 19.009,-66.962 43.57,-93.398 v 0 c 5.008,-5.39 10.283,-10.535 15.488,-15.742 v 0 c 330.566,-330.574 661.137,-661.145 991.707,-991.716 v 0 c 2.863,-2.863 5.763,-5.692 8.557,-8.619 v 0 c 1.23,-1.287 2.239,-2.782 4.484,-5.616 v 0 c -3.447,-0.936 -5.104,-1.57 -6.818,-1.823 v 0 c -35.698,-5.27 -71.585,-8.974 -107.605,-10.642 v 0 c -21.813,-1.01 -43.621,-1.554 -65.413,-1.554 v 0 c -43.302,0 -86.553,2.151 -129.733,7.08 v 0 c -34.014,3.883 -67.81,8.932 -101.407,15.494 v 0 c -85.922,16.783 -169.094,42.512 -248.901,78.4 v 0 c -252.174,113.399 -443.834,292.121 -574.607,535.689 v 0 c -52.17,97.167 -88.924,200.169 -111.655,308.144 v 0 c -8.951,42.517 -15.635,85.354 -19.959,128.595 v 0 c -3.006,30.051 -4.996,60.154 -5.734,90.322 v 0 c -1.552,63.396 1.888,126.533 10.368,189.406 v 0 c 5.266,39.041 12.329,77.728 21.397,116.053 v 0 c 17.669,74.677 42.319,146.969 74.107,216.823 v 0 c 1.331,2.926 2.31,6.011 3.305,8.635 v 0 c -11.712,14.155 -36.832,38.858 -44.082,43.229 v 0 c -3.359,-7.356 -6.684,-14.654 -10.024,-21.945 m 1081.74,-1759.32 c -28.064,0.926 -57.723,3.385 -93.341,7.74 v 0 c -42.876,5.242 -85.179,12.576 -125.731,21.795 v 0 c -72.829,16.558 -143.689,39.407 -210.61,67.914 v 0 c -67.585,28.789 -133.032,64.149 -194.525,105.099 v 0 c -55.412,36.9 -107.61,77.52 -155.143,120.733 v 0 c -47.513,43.194 -91.7,90.191 -131.335,139.687 v 0 c -39.644,49.506 -75.848,102.903 -107.607,158.708 v 0 c -31.786,55.852 -60.014,115.688 -83.901,177.845 v 0 c -25.306,65.85 -44.942,136.058 -58.366,208.677 v 0 c -6.672,36.095 -11.869,73.182 -15.446,110.229 v 0 c -4.859,50.324 -6.668,100.573 -5.376,149.356 v 0 c 1.122,42.366 4.416,85.203 9.79,127.319 v 0 c 7.906,61.952 20.565,123.557 37.628,183.104 v 0 c 16.999,59.327 38.854,118.302 64.955,175.287 v 0 c 0.785,1.713 1.569,3.427 2.353,5.141 v 0 c 7.177,-6.792 15.983,-15.669 22.972,-23.442 v 0 c -31.896,-70.093 -57.124,-143.906 -74.983,-219.387 v 0 c -8.97,-37.914 -16.254,-77.415 -21.647,-117.405 v 0 c -8.526,-63.211 -12.056,-127.681 -10.49,-191.621 v 0 c 0.718,-29.337 2.67,-60.079 5.799,-91.372 v 0 c 4.321,-43.212 11.114,-86.979 20.19,-130.087 v 0 c 11.544,-54.838 26.793,-108.668 45.32,-159.994 v 0 c 18.853,-52.231 41.631,-103.334 67.7,-151.888 v 0 c 32.892,-61.261 70.136,-119.259 110.698,-172.383 v 0 c 40.587,-53.158 85.626,-102.916 133.868,-147.891 v 0 c 48.245,-44.981 101.035,-86.43 156.902,-123.196 v 0 c 55.841,-36.751 116.312,-69.845 179.732,-98.364 v 0 c 78.674,-35.379 163.446,-62.083 251.959,-79.373 v 0 c 32.846,-6.415 66.376,-11.538 102.504,-15.663 v 0 c 41.678,-4.757 85.861,-7.17 131.32,-7.17 v 0 c 21.337,0 43.563,0.527 66.06,1.569 v 0 c 34.801,1.611 71.475,5.237 109.004,10.777 v 0 c 2.066,0.305 3.782,0.812 5.598,1.349 v 0 c 0.815,0.241 1.738,0.514 2.841,0.813 v 0 l 20.488,5.561 -13.18,16.641 c -0.743,0.939 -1.341,1.719 -1.853,2.39 v 0 c -1.16,1.514 -2.162,2.823 -3.48,4.202 v 0 c -2.199,2.304 -4.431,4.522 -6.59,6.667 v 0 c -0.732,0.728 -1.464,1.455 -2.194,2.185 v 0 l -134.015,134.016 c -285.898,285.898 -571.797,571.797 -857.691,857.7 v 0 c -1.061,1.061 -2.123,2.118 -3.187,3.177 v 0 c -4.184,4.163 -8.135,8.095 -11.945,12.195 v 0 c -23.277,25.055 -36.701,53.747 -39.897,85.281 v 0 c -2.481,24.483 -0.085,47.592 7.122,68.681 v 0 c 7.236,21.173 19.521,40.894 36.514,58.618 v 0 c 23.876,24.901 53.646,39.655 88.482,43.851 v 0 c 8.586,1.034 16.317,1.54 23.635,1.547 v 0 c 79.698,0.07 158.413,0.079 231.604,0.079 v 0 l 61.061,-10e-4 h 61.063 8.484 c 0.351,0 0.702,-0.011 1.054,-0.021 v 0 c 0.594,-0.015 1.189,-0.029 1.782,-0.029 v 0 c 0.792,0 1.529,0.023 2.237,0.073 v 0 c 1.585,-1.788 3.195,-3.329 4.631,-4.704 v 0 c 0.607,-0.581 1.216,-1.162 1.81,-1.756 v 0 l 35.43,-35.43 C 2129.483,1661.159 2564.941,1225.702 2993.433,797.15 v 0 l -99.135,-0.002 -127.16,-0.002 c -161.487,0 -334.952,0.014 -509.282,0.116 v 0 h -0.078 c -10.37,0 -21.204,-1.042 -34.094,-3.28 v 0 c -30.18,-5.24 -62.516,-9.387 -101.762,-13.049 v 0 c -32.03,-2.988 -65.981,-4.441 -103.792,-4.441 v 0 c -18.628,0 -38.231,0.348 -59.929,1.065"
               style="fill:url(#linearGradient604);stroke:none"
               id="path606" />
          </g>
        </g>
      </g>
    </g>
    <g
       transform="matrix(0.42407999,0,0,0.42407999,-25.5621,-33.189291)"
       id="g11668">
      <g
         transform="matrix(0.38915,0,0,0.41528,19.264939,79.903883)"
         id="g11666">
        <ellipse
           cx="797.04999"
           cy="196.05"
           rx="190.45"
           ry="183.55"
           fill="#ff2222"
           stroke="#ffffff"
           stroke-linecap="round"
           stroke-linejoin="round"
           stroke-miterlimit="4.2"
           stroke-width="32.908"
           style="paint-order:markers fill stroke"
           id="ellipse11660" />
        <text
           x="717.65588"
           y="280.96396"
           fill="#000000"
           font-family="Helvetica"
           font-size="266.67px"
           font-weight="bold"
           letter-spacing="0px"
           word-spacing="0px"
           style="line-height:1.25;font-variant-ligatures:normal;font-variant-caps:normal;font-variant-numeric:normal;font-feature-settings:normal"
           xml:space="preserve"
           id="text11664"><tspan
             x="717.65588"
             y="280.96396"
             fill="#ffffff"
             font-family="Helvetica"
             font-size="266.67px"
             font-weight="bold"
             style="font-variant-ligatures:normal;font-variant-caps:normal;font-variant-numeric:normal;font-feature-settings:normal"
             id="tspan11662">1</tspan></text>
      </g>
    </g>
  </g>
</svg>
