<?xml version="1.0" encoding="UTF-8" standalone="no"?>
<!-- Created with Inkscape (http://www.inkscape.org/) -->

<svg
   width="128.00003mm"
   height="128.00002mm"
   viewBox="0 0 128.00003 128.00002"
   version="1.1"
   id="svg1332"
   inkscape:version="1.2.1 (9c6d41e410, 2022-07-14)"
   sodipodi:docname="electron_light_icon.svg"
   xmlns:inkscape="http://www.inkscape.org/namespaces/inkscape"
   xmlns:sodipodi="http://sodipodi.sourceforge.net/DTD/sodipodi-0.dtd"
   xmlns="http://www.w3.org/2000/svg"
   xmlns:svg="http://www.w3.org/2000/svg">
  <sodipodi:namedview
     id="namedview1334"
     pagecolor="#ffffff"
     bordercolor="#000000"
     borderopacity="0.25"
     inkscape:showpageshadow="2"
     inkscape:pageopacity="0.0"
     inkscape:pagecheckerboard="0"
     inkscape:deskcolor="#d1d1d1"
     inkscape:document-units="mm"
     showgrid="false"
     inkscape:zoom="1.5215769"
     inkscape:cx="77.879731"
     inkscape:cy="249.74091"
     inkscape:window-width="1920"
     inkscape:window-height="1009"
     inkscape:window-x="1912"
     inkscape:window-y="-8"
     inkscape:window-maximized="1"
     inkscape:current-layer="layer1" />
  <defs
     id="defs1329">
    <linearGradient
       x1="0"
       y1="0"
       x2="1"
       y2="0"
       gradientUnits="userSpaceOnUse"
       gradientTransform="matrix(0,883.2907,-883.2907,0,63.29508,-311.22972)"
       spreadMethod="pad"
       id="linearGradient464">
      <stop
         style="stop-opacity:1;stop-color:#30c5f4"
         offset="0"
         id="stop454" />
      <stop
         style="stop-opacity:1;stop-color:#30c5f4"
         offset="0.266348"
         id="stop456" />
      <stop
         style="stop-opacity:1;stop-color:#fff2c3"
         offset="0.69136871"
         id="stop458" />
      <stop
         style="stop-opacity:1;stop-color:#fff2c3"
         offset="0.820354"
         id="stop460" />
      <stop
         style="stop-opacity:1;stop-color:#fff2c3"
         offset="1"
         id="stop462" />
    </linearGradient>
  </defs>
  <g
     inkscape:label="Layer 1"
     inkscape:groupmode="layer"
     id="layer1"
     transform="translate(378.37898,311.22968)">
    <path
       d="m -319.21145,-304.98226 c -1.67883,0.15723 -3.34928,0.36962 -5.00766,0.6671 v 0 c -3.69796,0.6634 -7.30382,1.66269 -10.80406,3.03235 v 0 c -9.38686,3.67312 -17.30698,9.38807 -23.79011,17.10168 v 0 c -0.13215,0.15723 -0.26681,0.31242 -0.41703,0.48816 v 0 c -0.20579,0 -0.41077,0 -0.61585,0 v 0 c -2.18447,-9.2e-4 -4.36899,-0.003 -6.55346,-0.005 v 0 c -1.5997,-9e-4 -3.19935,-0.003 -4.79899,-0.002 v 0 c -0.0229,4e-5 -0.0464,-9.2e-4 -0.0702,-0.002 v 0 c -0.10841,-0.005 -0.22486,-0.01 -0.34783,0.0827 v 0 c 0.13481,0.14567 0.24498,0.27299 0.36376,0.39178 v 0 c 5.43625,5.43762 10.87326,10.87451 16.31015,16.31154 v 0 c 0.56029,0.5603 1.15291,1.084 1.78699,1.55943 v 0 c 3.05837,2.29334 6.50399,3.45899 10.32201,3.49091 v 0 c 2.0901,0.0175 4.18036,0.0147 6.27062,0.0119 v 0 c 0.91993,-0.002 1.83981,-0.003 2.75976,-0.002 v 0 c 7.51671,0.004 15.03342,0.009 22.55016,0.01 v 0 c 0.70767,0 1.40698,0.0566 2.10183,0.19196 v 0 c 4.75933,0.92757 8.54173,5.59966 7.53208,11.13672 v 0 c -0.81846,4.48898 -4.78901,7.76976 -9.36411,7.79607 v 0 c -0.41941,0.003 -0.83885,0.002 -1.25828,9.1e-4 v 0 c -0.35464,-5.3e-4 -0.70923,-9.1e-4 -1.06379,0 v 0 c -0.0176,6e-5 -0.0358,-9.1e-4 -0.0542,-0.002 v 0 c -0.0814,-0.005 -0.16817,-0.0102 -0.23694,0.0908 v 0 c 0.0787,0.18757 0.25003,0.30842 0.39143,0.44991 v 0 c 5.37433,5.37792 10.75031,10.75423 16.12609,16.13068 v 0 c 0.0487,0.0487 0.10186,0.0936 0.1448,0.14692 v 0 c 0.17489,0.21659 0.39147,0.29037 0.67533,0.28855 v 0 c 1.07152,-0.007 2.12616,-0.13752 3.16954,-0.37085 v 0 c 1.92687,-0.43086 3.7381,-1.16507 5.4675,-2.10703 v 0 c 2.87274,-1.56476 5.39424,-3.55824 7.41243,-6.15057 v 0 c 3.66487,-4.70744 5.67342,-10.05755 6.11985,-15.9935 v 0 c 0.17465,-2.32242 0.0627,-4.64235 -0.31107,-6.94378 v 0 c -0.46791,-2.88082 -1.26948,-5.66663 -2.44496,-8.34017 v 0 c -2.55767,-5.81706 -6.52986,-10.38992 -12.03101,-13.59879 v 0 c -4.41529,-2.5754 -9.21821,-3.90445 -14.28352,-4.36395 v 0 c -1.35472,-0.12289 -2.71294,-0.14761 -4.07195,-0.15066 v 0 c -4.45496,-0.01 -8.90992,-0.0215 -13.36494,-0.0261 v 0 c -11.42128,-0.0119 -22.84262,-0.0202 -34.26392,-0.0298 v 0 c -0.18783,0 -0.37561,0 -0.63209,0 v 0 c 0.0837,-0.29893 0.25268,-0.42602 0.38655,-0.57253 v 0 c 5.41626,-5.92515 11.79912,-10.50101 19.16793,-13.6882 v 0 c 5.01954,-2.17105 10.25101,-3.55763 15.68767,-4.17412 v 0 c 1.86484,-0.21139 3.7346,-0.32246 5.60891,-0.36452 v 0 c 1.61731,-0.0363 3.23181,0.0454 4.84577,0.15365 v 0 c 1.64848,0.11064 3.28734,0.30223 4.91648,0.56774 v 0 c 3.36686,0.54877 6.65631,1.40105 9.86925,2.55227 v 0 c 14.86627,5.32646 26.94443,16.94054 32.84971,31.59545 v 0 c 1.82819,4.53694 3.04498,9.23037 3.63306,14.08814 v 0 c 0.17789,1.46942 0.31265,2.94232 0.36652,4.41974 v 0 c 0.11233,3.08081 0.021,6.15502 -0.36764,9.21797 v 0 c -0.2296,1.80909 -0.52959,3.60424 -0.92848,5.38357 v 0 c -1.68993,7.53829 -4.82364,14.42165 -9.37312,20.66176 v 0 c -2.15493,2.95577 -4.57882,5.67276 -7.2742,8.1469 v 0 c -0.10822,0.0993 -0.25617,0.17566 -0.27597,0.34098 v 0 c 0.49052,0.56794 1.57176,1.62523 1.90986,1.86107 v 0 c 0.12153,-0.10411 0.25606,-0.20794 0.37751,-0.32514 v 0 c 0.61888,-0.5972 1.24687,-1.18551 1.84916,-1.79897 v 0 c 7.02043,-7.15111 11.92439,-15.53915 14.67546,-25.17801 v 0 c 0.85068,-2.98049 1.44106,-6.01445 1.79663,-9.09527 v 0 c 0.18556,-1.60727 0.31906,-3.21839 0.36311,-4.83393 v 0 c 0.047,-1.71898 0.0453,-3.43862 -0.0542,-5.1583 v 0 c -0.11537,-1.99321 -0.31769,-3.97482 -0.62273,-5.94758 v 0 c -0.43687,-2.82521 -1.07874,-5.60253 -1.93681,-8.32849 v 0 c -2.92784,-9.30138 -7.86136,-17.38531 -14.80142,-24.23031 v 0 c -10.21782,-10.07792 -23.54346,-15.94355 -37.77973,-16.74046 v 0 c -1.09881,-0.0615 -2.19774,-0.0927 -3.29666,-0.0927 v 0 c -1.7712,0 -3.54217,0.0811 -5.31116,0.24663 m -47.83823,33.83857 c -2.47337,5.40012 -4.0953,11.04268 -4.84741,16.93676 v 0 c -0.25497,1.99831 -0.40917,4.00339 -0.46247,6.01497 v 0 c -0.0624,2.35718 0.0272,4.71066 0.254,7.05939 v 0 c 0.16866,1.74676 0.41065,3.48153 0.72958,5.20687 v 0 c 0.62336,3.37237 1.53006,6.6667 2.75978,9.86696 v 0 c 4.53324,11.79698 12.06822,21.20365 22.58228,28.2056 v 0 c 5.87009,3.90924 12.26869,6.61403 19.14779,8.17809 v 0 c 1.96253,0.44621 3.94247,0.78556 5.94047,1.02989 v 0 c 1.469,0.17963 2.94202,0.31738 4.41921,0.36617 v 0 c 2.57902,0.0852 5.15781,0.0799 7.73236,-0.16028 v 0 c 1.60988,-0.15018 3.21305,-0.33994 4.80597,-0.61652 v 0 c 0.49098,-0.0852 0.98174,-0.14398 1.48483,-0.1437 v 0 c 11.71329,0.007 23.42653,0.006 35.13979,0.006 v 0 c 0.15482,0 0.30975,0.003 0.46433,-0.004 v 0 c 0.009,-5.3e-4 0.0192,-1.3e-4 0.0292,0 v 0 c 0.0567,9.1e-4 0.12001,0.002 0.15701,-0.0967 v 0 c -0.0752,-0.1979 -0.26568,-0.32467 -0.41842,-0.47747 v 0 c -20.74738,-20.75165 -41.49631,-41.50183 -62.24521,-62.25208 v 0 c -0.0972,-0.0972 -0.20171,-0.18842 -0.29092,-0.29261 v 0 c -0.13493,-0.15767 -0.30066,-0.21908 -0.50355,-0.20037 v 0 c -0.0682,0.007 -0.13757,5.7e-4 -0.20634,5.7e-4 v 0 c -1.0746,0 -2.1492,0 -3.2238,0 v 0 c -4.56701,0 -9.13407,-5.7e-4 -13.70107,0.004 v 0 c -0.39413,5.8e-4 -0.79046,0.0298 -1.18202,0.0769 v 0 c -1.77292,0.21355 -3.29453,0.95902 -4.52836,2.24584 v 0 c -1.73293,1.80745 -2.46914,3.98437 -2.21752,6.46723 v 0 c 0.16994,1.6772 0.88816,3.12911 2.03579,4.36443 v 0 c 0.23401,0.25185 0.48048,0.49228 0.7237,0.73559 v 0 c 15.44589,15.4473 30.89203,30.89444 46.33813,46.34159 v 0 c 0.1338,0.13378 0.2693,0.26597 0.39988,0.40279 v 0 c 0.0574,0.06 0.10458,0.12995 0.20948,0.26238 v 0 c -0.16106,0.0438 -0.23849,0.0734 -0.31857,0.0852 v 0 c -1.66802,0.24625 -3.34487,0.41933 -5.02792,0.49727 v 0 c -3.04455,0.14094 -6.08532,0.088 -9.11832,-0.25821 v 0 c -1.58934,-0.18146 -3.16847,-0.41739 -4.73832,-0.72402 v 0 c -4.01474,-0.78425 -7.90103,-1.98653 -11.63006,-3.66352 v 0 c -11.78299,-5.29891 -20.73842,-13.65035 -26.84892,-25.03191 v 0 c -2.43763,-4.54054 -4.15498,-9.35368 -5.21716,-14.39921 v 0 c -0.41818,-1.98677 -0.7305,-3.98843 -0.93254,-6.00907 v 0 c -0.14047,-1.40425 -0.23345,-2.81093 -0.26792,-4.22063 v 0 c -0.0725,-2.96242 0.0881,-5.91272 0.48445,-8.8507 v 0 c 0.24601,-1.82433 0.57607,-3.63212 0.99979,-5.42299 v 0 c 0.82558,-3.48956 1.97738,-6.86766 3.4627,-10.13186 v 0 c 0.0623,-0.13673 0.10788,-0.28089 0.1544,-0.4035 v 0 c -0.54723,-0.66145 -1.72098,-1.81578 -2.05974,-2.02003 v 0 c -0.15696,0.34377 -0.3123,0.68476 -0.46839,1.02545"
       style="display:inline;fill:#e6e6e6;fill-opacity:1;stroke:none;stroke-width:0.0467272"
       id="path466" />
  </g>
</svg>
