<?xml version="1.0" encoding="UTF-8"?>
<svg width="128mm" height="128mm" version="1.1" viewBox="0 0 128 128" xml:space="preserve" xmlns="http://www.w3.org/2000/svg"><defs><style>.cls-1{fill:#0056C0;}.cls-2{fill:#fff;}</style><style>.cls-1{fill:#0056C0;}.cls-2{fill:#fff;}</style><style>.cls-1{fill:#0056C0;}.cls-2{fill:#fff;}</style><style>.cls-1{fill:#0056C0;}.cls-2{fill:#fff;}</style><style>.cls-1{fill:#0056C0;}.cls-2{fill:#fff;}</style><style>.cls-1{fill:#0056C0;}.cls-2{fill:#fff;}</style><style>.cls-1{fill:#0056C0;}.cls-2{fill:#fff;}</style></defs><g transform="translate(-610.86 -32.588)" stroke-linecap="round" stroke-linejoin="round"><rect x="610.86" y="32.588" width="128" height="128" fill="none" stroke-width="18.609" style="paint-order:markers stroke fill"/><g transform="matrix(1.5551 0 0 1.5551 528.79 -113.22)" fill="#c0c0c0"><circle cx="61.587" cy="148.5" r="5.48" stroke-width="4.4377" style="paint-order:markers stroke fill"/><circle cx="69.243" cy="159.12" r="4.5361" stroke-width="3.6734" style="paint-order:markers stroke fill"/><circle cx="80.005" cy="166.18" r="4.1746" stroke-width="3.3806" style="paint-order:markers stroke fill"/><circle cx="93.776" cy="169.4" r="3.8131" stroke-width="3.0878" style="paint-order:markers stroke fill"/><circle cx="106.67" cy="167.19" r="3.1597" stroke-width="2.5587" style="paint-order:markers stroke fill"/><circle cx="118.32" cy="158.94" r="2.7271" stroke-width="2.2084" style="paint-order:markers stroke fill"/><circle cx="125.59" cy="148.24" r="2.1765" stroke-width="1.7625" style="paint-order:markers stroke fill"/><circle cx="58.952" cy="134.46" r="6.1744" stroke-width="5" style="paint-order:markers stroke fill"/><circle cx="106.43" cy="135.72" r="1.3396" stroke-width="1.0848" style="paint-order:markers stroke fill"/><circle cx="92.96" cy="147.6" r="2.2146" stroke-width="1.7934" style="paint-order:markers stroke fill"/><circle cx="98.132" cy="147" r="1.959" stroke-width="1.5864" style="paint-order:markers stroke fill"/><circle cx="102.15" cy="144.36" r="1.6149" stroke-width="1.3077" style="paint-order:markers stroke fill"/><circle cx="104.96" cy="140.57" r="1.4772" stroke-width="1.1963" style="paint-order:markers stroke fill"/><circle cx="105.89" cy="131.01" r="1.1626" stroke-width=".94149" style="paint-order:markers stroke fill"/><circle cx="103.18" cy="126.59" r=".95615" stroke-width=".77429" style="paint-order:markers stroke fill"/><circle cx="99.537" cy="123.65" r=".73002" stroke-width=".59117" style="paint-order:markers stroke fill"/><circle transform="scale(-1)" cx="-94.862" cy="-122.2" r="2.2146" stroke-width="1.7934" style="paint-order:markers stroke fill"/><circle transform="scale(-1)" cx="-89.691" cy="-122.8" r="1.959" stroke-width="1.5864" style="paint-order:markers stroke fill"/><circle transform="scale(-1)" cx="-85.67" cy="-125.44" r="1.6149" stroke-width="1.3077" style="paint-order:markers stroke fill"/><circle transform="scale(-1)" cx="-82.858" cy="-129.23" r="1.4772" stroke-width="1.1963" style="paint-order:markers stroke fill"/><circle transform="scale(-1)" cx="-81.393" cy="-134.08" r="1.3396" stroke-width="1.0848" style="paint-order:markers stroke fill"/><circle transform="scale(-1)" cx="-81.934" cy="-138.79" r="1.1626" stroke-width=".94149" style="paint-order:markers stroke fill"/><circle transform="scale(-1)" cx="-84.647" cy="-143.2" r=".95615" stroke-width=".77429" style="paint-order:markers stroke fill"/><circle transform="scale(-1)" cx="-88.285" cy="-146.14" r=".73002" stroke-width=".59117" style="paint-order:markers stroke fill"/><circle cx="77.058" cy="150.92" r="4.0609" stroke-width="3.2885" style="paint-order:markers stroke fill"/><circle cx="84.816" cy="156.41" r="3.616" stroke-width="2.9282" style="paint-order:markers stroke fill"/><circle cx="93.437" cy="157.87" r="3.0042" stroke-width="2.4328" style="paint-order:markers stroke fill"/><circle cx="101.86" cy="156.26" r="2.7261" stroke-width="2.2076" style="paint-order:markers stroke fill"/><circle cx="109.87" cy="151.36" r="2.5037" stroke-width="2.0274" style="paint-order:markers stroke fill"/><circle cx="114.91" cy="144.27" r="2.1421" stroke-width="1.7347" style="paint-order:markers stroke fill"/><circle cx="116.68" cy="135.01" r="1.9197" stroke-width="1.5546" style="paint-order:markers stroke fill"/><circle cx="115.24" cy="126.61" r="1.5582" stroke-width="1.2618" style="paint-order:markers stroke fill"/><circle transform="scale(-1)" cx="-110.85" cy="-118.92" r="4.0609" stroke-width="3.2885" style="paint-order:markers stroke fill"/><circle transform="scale(-1)" cx="-103.09" cy="-113.42" r="3.616" stroke-width="2.9282" style="paint-order:markers stroke fill"/><circle transform="scale(-1)" cx="-94.468" cy="-111.96" r="3.0042" stroke-width="2.4328" style="paint-order:markers stroke fill"/><circle transform="scale(-1)" cx="-86.042" cy="-113.58" r="2.7261" stroke-width="2.2076" style="paint-order:markers stroke fill"/><circle transform="scale(-1)" cx="-78.033" cy="-118.47" r="2.5037" stroke-width="2.0274" style="paint-order:markers stroke fill"/><circle transform="scale(-1)" cx="-73" cy="-125.56" r="2.1421" stroke-width="1.7347" style="paint-order:markers stroke fill"/><circle transform="scale(-1)" cx="-71.22" cy="-134.82" r="1.9197" stroke-width="1.5546" style="paint-order:markers stroke fill"/><circle transform="scale(-1)" cx="-72.666" cy="-143.22" r="1.5582" stroke-width="1.2618" style="paint-order:markers stroke fill"/><circle cx="126.31" cy="121.25" r="5.48" stroke-width="4.4377" style="paint-order:markers stroke fill"/><circle cx="118.61" cy="110.75" r="4.5361" stroke-width="3.6734" style="paint-order:markers stroke fill"/><circle cx="107.76" cy="103.64" r="4.1746" stroke-width="3.3806" style="paint-order:markers stroke fill"/><circle cx="93.992" cy="100.44" r="3.8131" stroke-width="3.0878" style="paint-order:markers stroke fill"/><circle cx="81.191" cy="102.66" r="3.1597" stroke-width="2.5587" style="paint-order:markers stroke fill"/><circle cx="69.472" cy="110.88" r="2.7271" stroke-width="2.2084" style="paint-order:markers stroke fill"/><circle cx="62.147" cy="121.58" r="2.1765" stroke-width="1.7625" style="paint-order:markers stroke fill"/><circle cx="128.91" cy="135.44" r="6.1744" stroke-width="5" style="paint-order:markers stroke fill"/></g></g></svg>
