<?xml version="1.0" encoding="UTF-8" standalone="no"?>
<!-- Created with Inkscape (http://www.inkscape.org/) -->

<svg
   width="128.00003mm"
   height="128.00002mm"
   viewBox="0 0 128.00003 128.00002"
   version="1.1"
   id="svg1332"
   inkscape:version="1.2.1 (9c6d41e410, 2022-07-14)"
   sodipodi:docname="electron_light_icon.svg"
   xmlns:inkscape="http://www.inkscape.org/namespaces/inkscape"
   xmlns:sodipodi="http://sodipodi.sourceforge.net/DTD/sodipodi-0.dtd"
   xmlns="http://www.w3.org/2000/svg"
   xmlns:svg="http://www.w3.org/2000/svg">
  <sodipodi:namedview
     id="namedview1334"
     pagecolor="#ffffff"
     bordercolor="#000000"
     borderopacity="0.25"
     inkscape:showpageshadow="2"
     inkscape:pageopacity="0.0"
     inkscape:pagecheckerboard="0"
     inkscape:deskcolor="#d1d1d1"
     inkscape:document-units="mm"
     showgrid="false"
     inkscape:zoom="1.5215769"
     inkscape:cx="182.37659"
     inkscape:cy="249.74091"
     inkscape:window-width="1920"
     inkscape:window-height="1057"
     inkscape:window-x="-8"
     inkscape:window-y="-8"
     inkscape:window-maximized="1"
     inkscape:current-layer="layer1" />
  <defs
     id="defs1329">
    <linearGradient
       x1="0"
       y1="0"
       x2="1"
       y2="0"
       gradientUnits="userSpaceOnUse"
       gradientTransform="matrix(0,883.2907,-883.2907,0,63.29508,-311.22972)"
       spreadMethod="pad"
       id="linearGradient464">
      <stop
         style="stop-opacity:1;stop-color:#30c5f4"
         offset="0"
         id="stop454" />
      <stop
         style="stop-opacity:1;stop-color:#30c5f4"
         offset="0.266348"
         id="stop456" />
      <stop
         style="stop-opacity:1;stop-color:#fff2c3"
         offset="0.69136871"
         id="stop458" />
      <stop
         style="stop-opacity:1;stop-color:#fff2c3"
         offset="0.820354"
         id="stop460" />
      <stop
         style="stop-opacity:1;stop-color:#fff2c3"
         offset="1"
         id="stop462" />
    </linearGradient>
  </defs>
  <g
     inkscape:label="Layer 1"
     inkscape:groupmode="layer"
     id="layer1"
     transform="translate(378.37898,311.22968)">
    <path
       d="m -320.21273,-310.9596 c -1.83668,0.17202 -3.66418,0.40437 -5.47849,0.72981 v 0 c -4.04562,0.72578 -7.9905,1.81902 -11.81981,3.31746 v 0 c -10.26938,4.01844 -18.93414,10.27071 -26.0268,18.70952 v 0 c -0.14457,0.17202 -0.29189,0.3418 -0.45623,0.53406 v 0 c -0.22513,0 -0.44939,0 -0.67376,0 v 0 c -2.38984,-0.001 -4.77974,-0.003 -7.16959,-0.005 v 0 c -1.7501,-0.001 -3.50014,-0.003 -5.25018,-0.002 v 0 c -0.0251,5e-5 -0.0507,-0.001 -0.0768,-0.002 v 0 c -0.1186,-0.005 -0.246,-0.0102 -0.38054,0.0905 v 0 c 0.14748,0.15936 0.26802,0.29865 0.39796,0.42861 v 0 c 5.94736,5.94886 11.89552,11.8969 17.84358,17.8451 v 0 c 0.61296,0.613 1.26131,1.18592 1.95499,1.70604 v 0 c 3.34592,2.50896 7.1155,3.7842 11.29246,3.81912 v 0 c 2.2866,0.0192 4.57339,0.0161 6.86017,0.013 v 0 c 1.00643,-0.002 2.0128,-0.003 3.01923,-0.002 v 0 c 8.22341,0.004 16.44681,0.009 24.67027,0.0103 v 0 c 0.7742,0 1.53924,0.0619 2.29943,0.21001 v 0 c 5.20679,1.01477 9.34479,6.12611 8.24022,12.18376 v 0 c -0.8954,4.91102 -5.23926,8.50025 -10.24449,8.52903 v 0 c -0.45884,0.003 -0.91772,0.002 -1.37658,0.001 v 0 c -0.38798,-5.8e-4 -0.77592,-0.001 -1.16381,0 v 0 c -0.0192,6e-5 -0.0391,-0.001 -0.0592,-0.002 v 0 c -0.0891,-0.005 -0.18398,-0.0112 -0.25922,0.0993 v 0 c 0.0861,0.2052 0.27354,0.33741 0.42823,0.49221 v 0 c 5.87961,5.88352 11.76102,11.76531 17.64222,17.64724 v 0 c 0.0532,0.0533 0.11143,0.10245 0.15841,0.16073 v 0 c 0.19134,0.23695 0.42827,0.31767 0.73882,0.31568 v 0 c 1.17226,-0.007 2.32605,-0.15045 3.46754,-0.40571 v 0 c 2.10802,-0.47138 4.08954,-1.27462 5.98153,-2.30513 v 0 c 3.14283,-1.71188 5.9014,-3.89278 8.10933,-6.72883 v 0 c 4.00943,-5.15003 6.20681,-11.00314 6.69521,-17.49716 v 0 c 0.19108,-2.54077 0.0687,-5.07882 -0.34031,-7.59663 v 0 c -0.51189,-3.15166 -1.38884,-6.19939 -2.67483,-9.12428 v 0 c -2.79813,-6.36397 -7.14378,-11.36676 -13.16213,-14.87732 v 0 c -4.8304,-2.81753 -10.08489,-4.27154 -15.62641,-4.77423 v 0 c -1.48209,-0.13445 -2.968,-0.16149 -4.45479,-0.16482 v 0 c -4.8738,-0.0107 -9.74761,-0.0236 -14.62147,-0.0286 v 0 c -12.49508,-0.013 -24.99022,-0.022 -37.48531,-0.0326 v 0 c -0.20549,0 -0.41094,0 -0.69153,0 v 0 c 0.0915,-0.32703 0.27645,-0.46608 0.4229,-0.62635 v 0 c 5.92548,-6.48222 12.90844,-11.48829 20.97005,-14.97512 v 0 c 5.49147,-2.37517 11.21477,-3.89211 17.16258,-4.56657 v 0 c 2.04015,-0.23127 4.0857,-0.35278 6.13624,-0.39879 v 0 c 1.76936,-0.0397 3.53566,0.0496 5.30135,0.16809 v 0 c 1.80347,0.12105 3.59641,0.33065 5.37871,0.62112 v 0 c 3.6834,0.60038 7.28211,1.53279 10.79713,2.79223 v 0 c 16.26396,5.82724 29.47767,18.53325 35.93815,34.56597 v 0 c 2.00007,4.96349 3.33126,10.09819 3.97463,15.41267 v 0 c 0.19461,1.60757 0.34204,3.21894 0.40098,4.83526 v 0 c 0.12289,3.37048 0.0231,6.7337 -0.40221,10.08463 v 0 c -0.25119,1.97919 -0.57937,3.9431 -1.01577,5.88971 v 0 c -1.84881,8.24703 -5.27714,15.77754 -10.25435,22.60433 v 0 c -2.35754,3.23366 -5.00932,6.2061 -7.9581,8.91285 v 0 c -0.11839,0.10864 -0.28024,0.19217 -0.30191,0.37304 v 0 c 0.53663,0.62134 1.71953,1.77803 2.08942,2.03604 v 0 c 0.13295,-0.1139 0.28013,-0.22749 0.41299,-0.35571 v 0 c 0.67707,-0.65334 1.3641,-1.29696 2.02302,-1.9681 v 0 c 7.68048,-7.82344 13.04549,-17.0001 16.0552,-27.54518 v 0 c 0.93067,-3.26071 1.57654,-6.57991 1.96555,-9.95038 v 0 c 0.203,-1.75839 0.34905,-3.52097 0.39725,-5.28841 v 0 c 0.0513,-1.88058 0.0496,-3.76191 -0.0593,-5.64326 v 0 c -0.12621,-2.18061 -0.34756,-4.34853 -0.68127,-6.50676 v 0 c -0.47795,-3.09082 -1.18017,-6.12926 -2.11891,-9.11151 v 0 c -3.2031,-10.17588 -8.60045,-19.01983 -16.19301,-26.50838 v 0 c -11.17847,-11.02542 -25.75695,-17.44252 -41.33168,-18.31435 v 0 c -1.20211,-0.0673 -2.40436,-0.10132 -3.60658,-0.10132 v 0 c -1.93774,0 -3.8752,0.0887 -5.81051,0.26982 m -52.33583,37.01998 c -2.70593,5.90781 -4.48034,12.08089 -5.30316,18.52911 v 0 c -0.27895,2.18618 -0.44765,4.37977 -0.50596,6.58047 v 0 c -0.0683,2.5788 0.0298,5.15355 0.27788,7.7231 v 0 c 0.18453,1.91099 0.44927,3.80885 0.79816,5.69641 v 0 c 0.68198,3.68943 1.67394,7.29348 3.01927,10.79462 v 0 c 4.95943,12.9061 13.20283,23.19716 24.70539,30.85742 v 0 c 6.42199,4.27676 13.42217,7.23586 20.94802,8.94696 v 0 c 2.14704,0.48817 4.31313,0.85942 6.49898,1.12673 v 0 c 1.60711,0.19651 3.21862,0.34722 4.83469,0.40059 v 0 c 2.82149,0.0932 5.64273,0.0874 8.45933,-0.17535 v 0 c 1.76123,-0.1643 3.51512,-0.3719 5.2578,-0.67449 v 0 c 0.53715,-0.0932 1.07405,-0.15751 1.62444,-0.1572 v 0 c 12.81454,0.007 25.62902,0.006 38.44354,0.006 v 0 c 0.16936,0 0.33886,0.003 0.50797,-0.004 v 0 c 0.0102,-5.8e-4 0.0211,-1.4e-4 0.032,0 v 0 c 0.062,0.001 0.13128,0.002 0.17176,-0.10582 v 0 c -0.0823,-0.21651 -0.29065,-0.3552 -0.45776,-0.52237 v 0 c -22.69797,-22.70265 -45.39767,-45.40372 -68.09732,-68.10484 v 0 c -0.10638,-0.10639 -0.22068,-0.20613 -0.31826,-0.32013 v 0 c -0.14763,-0.17249 -0.32894,-0.23966 -0.5509,-0.21921 v 0 c -0.0747,0.007 -0.1505,6.3e-4 -0.22574,6.3e-4 v 0 c -1.17563,0 -2.35126,0 -3.52689,0 v 0 c -4.99638,0 -9.99283,-6.3e-4 -14.98921,0.004 v 0 c -0.43119,6.3e-4 -0.86477,0.0326 -1.29315,0.0842 v 0 c -1.9396,0.23363 -3.60428,1.04918 -4.95411,2.45698 v 0 c -1.89585,1.97739 -2.70127,4.35897 -2.42599,7.07528 v 0 c 0.18591,1.83487 0.97166,3.42329 2.22718,4.77475 v 0 c 0.25601,0.27554 0.52566,0.53856 0.79174,0.80475 v 0 c 16.89808,16.89961 33.79642,33.79905 50.69472,50.6985 v 0 c 0.14636,0.14635 0.2946,0.29097 0.43747,0.44066 v 0 c 0.0628,0.0657 0.11441,0.14217 0.22917,0.28705 v 0 c -0.1762,0.0479 -0.26091,0.0803 -0.34853,0.0932 v 0 c -1.82484,0.26941 -3.65933,0.45876 -5.50062,0.54403 v 0 c -3.33079,0.15419 -6.65744,0.0963 -9.9756,-0.2825 v 0 c -1.73876,-0.1985 -3.46636,-0.45662 -5.18379,-0.79208 v 0 c -4.39222,-0.85798 -8.64387,-2.17329 -12.72349,-4.00796 v 0 c -12.8908,-5.79709 -22.68819,-14.93372 -29.37318,-27.38534 v 0 c -2.66682,-4.96742 -4.54563,-10.23308 -5.70767,-15.75298 v 0 c -0.4575,-2.17356 -0.79918,-4.36341 -1.02022,-6.57403 v 0 c -0.15366,-1.53627 -0.25539,-3.0752 -0.29311,-4.61743 v 0 c -0.0793,-3.24094 0.0965,-6.46863 0.53,-9.68282 v 0 c 0.26914,-1.99585 0.63024,-3.97361 1.09379,-5.93286 v 0 c 0.90321,-3.81763 2.16329,-7.51334 3.78825,-11.08442 v 0 c 0.0681,-0.14958 0.11803,-0.30729 0.16893,-0.44144 v 0 c -0.59869,-0.72363 -1.88279,-1.98649 -2.2534,-2.20995 v 0 c -0.17172,0.3761 -0.34167,0.74915 -0.51241,1.12187"
       style="display:inline;fill:#bfbfbf;fill-opacity:1;stroke:none;stroke-width:0.0511204"
       id="path466" />
  </g>
</svg>
