<?xml version="1.0" encoding="UTF-8" standalone="no"?>
<!-- Created with Inkscape (http://www.inkscape.org/) -->

<svg
   width="127.99994mm"
   height="128mm"
   viewBox="0 0 127.99994 128"
   version="1.1"
   id="svg11253"
   inkscape:version="1.2.1 (9c6d41e410, 2022-07-14)"
   sodipodi:docname="electron-radiant.svg"
   xmlns:inkscape="http://www.inkscape.org/namespaces/inkscape"
   xmlns:sodipodi="http://sodipodi.sourceforge.net/DTD/sodipodi-0.dtd"
   xmlns="http://www.w3.org/2000/svg"
   xmlns:svg="http://www.w3.org/2000/svg">
  <sodipodi:namedview
     id="namedview11255"
     pagecolor="#ffffff"
     bordercolor="#000000"
     borderopacity="0.25"
     inkscape:showpageshadow="2"
     inkscape:pageopacity="0.0"
     inkscape:pagecheckerboard="0"
     inkscape:deskcolor="#d1d1d1"
     inkscape:document-units="mm"
     showgrid="false"
     inkscape:zoom="1.0759173"
     inkscape:cx="394.08232"
     inkscape:cy="278.83183"
     inkscape:window-width="1904"
     inkscape:window-height="993"
     inkscape:window-x="0"
     inkscape:window-y="0"
     inkscape:window-maximized="1"
     inkscape:current-layer="layer1" />
  <defs
     id="defs11250">
    <linearGradient
       x1="0"
       y1="0"
       x2="1"
       y2="0"
       gradientUnits="userSpaceOnUse"
       gradientTransform="matrix(0,-2503.8162,-2503.8162,0,2014.4,3266.3081)"
       spreadMethod="pad"
       id="linearGradient464">
      <stop
         style="stop-opacity:1;stop-color:#30c5f4"
         offset="0"
         id="stop454" />
      <stop
         style="stop-opacity:1;stop-color:#30c5f4"
         offset="0.266348"
         id="stop456" />
      <stop
         style="stop-opacity:1;stop-color:#fff2c3"
         offset="0.69136871"
         id="stop458" />
      <stop
         style="stop-opacity:1;stop-color:#fff2c3"
         offset="0.820354"
         id="stop460" />
      <stop
         style="stop-opacity:1;stop-color:#fff2c3"
         offset="1"
         id="stop462" />
    </linearGradient>
    <linearGradient
       x1="0"
       y1="0"
       x2="1"
       y2="0"
       gradientUnits="userSpaceOnUse"
       gradientTransform="matrix(0,128,-127.99169,0,-208.65522,-368.6126)"
       spreadMethod="pad"
       id="linearGradient490">
      <stop
         style="stop-opacity:1;stop-color:#92d7eb"
         offset="0"
         id="stop480" />
      <stop
         style="stop-opacity:1;stop-color:#92d7eb"
         offset="0.16341567"
         id="stop482" />
      <stop
         style="stop-opacity:1;stop-color:#d97b86"
         offset="0.490679"
         id="stop484" />
      <stop
         style="stop-opacity:1;stop-color:#fff6c4"
         offset="0.73206222"
         id="stop486" />
      <stop
         style="stop-opacity:1;stop-color:#fff6c4"
         offset="1"
         id="stop488" />
    </linearGradient>
  </defs>
  <g
     inkscape:label="Layer 1"
     inkscape:groupmode="layer"
     id="layer1"
     transform="translate(272.6547,368.61291)">
    <g
       id="g450"
       style="display:inline"
       transform="matrix(0.05111865,0,0,-0.05112196,-311.62864,-201.63253)">
      <g
         id="g452">
        <path
           d="m 1900.276,3261.03 c -35.93,-3.365 -71.68,-7.91 -107.172,-14.276 v 0 c -79.142,-14.197 -156.313,-35.582 -231.223,-64.893 v 0 c -200.893,-78.605 -370.396,-200.906 -509.145,-365.978 v 0 c -2.828,-3.365 -5.71,-6.686 -8.925,-10.447 v 0 c -4.404,0 -8.791,0 -13.18,0 v 0 c -46.751,0.029 -93.503,0.06 -140.254,0.091 v 0 c -34.236,0.022 -68.471,0.066 -102.706,0.033 v 0 c -0.492,-10e-4 -0.992,0.021 -1.501,0.042 v 0 c -2.32,0.096 -4.812,0.192 -7.444,-1.769 v 0 c 2.885,-3.117 5.243,-5.842 7.785,-8.384 v 0 c 116.344,-116.366 232.704,-232.716 349.062,-349.069 v 0 c 11.991,-11.991 24.674,-23.198 38.244,-33.372 v 0 c 65.454,-49.078 139.196,-74.023 220.907,-74.706 v 0 c 44.731,-0.375 89.466,-0.314 134.201,-0.253 v 0 c 19.688,0.027 39.375,0.055 59.063,0.044 v 0 c 160.869,-0.082 321.738,-0.189 482.608,-0.202 v 0 c 15.145,0 30.111,-1.209 44.982,-4.108 v 0 c 101.857,-19.85 182.806,-119.833 161.198,-238.327 v 0 c -17.516,-96.065 -102.492,-166.274 -200.406,-166.837 v 0 c -8.976,-0.052 -17.953,-0.039 -26.929,-0.025 v 0 c -7.59,0.012 -15.179,0.024 -22.767,0 v 0 c -0.376,-10e-4 -0.765,0.023 -1.158,0.048 v 0 c -1.743,0.108 -3.599,0.217 -5.071,-1.942 v 0 c 1.683,-4.014 5.351,-6.6 8.377,-9.628 v 0 c 115.019,-115.088 230.073,-230.142 345.123,-345.199 v 0 c 1.04,-1.042 2.18,-2.004 3.099,-3.144 v 0 c 3.743,-4.635 8.378,-6.214 14.453,-6.175 v 0 c 22.932,0.144 45.503,2.943 67.833,7.936 v 0 c 41.238,9.221 80.001,24.933 117.013,45.091 v 0 c 61.481,33.486 115.445,76.147 158.637,131.623 v 0 c 78.434,100.74 121.42,215.233 130.974,342.263 v 0 c 3.738,49.7 1.344,99.347 -6.657,148.598 v 0 c -10.014,61.649 -27.169,121.266 -52.326,178.48 v 0 c -54.738,124.486 -139.749,222.346 -257.482,291.016 v 0 c -94.494,55.114 -197.284,83.556 -305.689,93.389 v 0 c -28.993,2.63 -58.061,3.159 -87.146,3.224 v 0 c -95.343,0.211 -190.686,0.461 -286.03,0.559 v 0 c -244.433,0.253 -488.867,0.431 -733.3,0.638 v 0 c -4.02,0 -8.039,0 -13.528,0 v 0 c 1.79,6.397 5.408,9.117 8.273,12.252 v 0 c 115.916,126.799 252.519,224.723 410.223,292.929 v 0 c 107.426,46.461 219.387,76.134 335.74,89.327 v 0 c 39.91,4.524 79.926,6.901 120.039,7.801 v 0 c 34.613,0.777 69.166,-0.969 103.707,-3.288 v 0 c 35.28,-2.368 70.354,-6.468 105.22,-12.15 v 0 c 72.056,-11.744 142.455,-29.983 211.217,-54.619 v 0 c 318.161,-113.987 576.652,-362.53 703.034,-676.147 v 0 c 39.126,-97.091 65.167,-197.531 77.753,-301.488 v 0 c 3.807,-31.446 6.691,-62.966 7.844,-94.583 v 0 c 2.404,-65.93 0.451,-131.718 -7.868,-197.266 v 0 c -4.914,-38.715 -11.334,-77.131 -19.871,-115.209 v 0 c -36.167,-161.326 -103.233,-308.631 -200.599,-442.17 v 0 c -46.119,-63.254 -97.994,-121.398 -155.679,-174.345 v 0 c -2.316,-2.125 -5.482,-3.759 -5.906,-7.297 v 0 c 10.498,-12.154 33.638,-34.78 40.874,-39.827 v 0 c 2.601,2.228 5.48,4.45 8.079,6.958 v 0 c 13.245,12.78 26.685,25.37 39.575,38.498 v 0 c 150.248,153.035 255.2,332.54 314.077,538.813 v 0 c 18.206,63.783 30.841,128.71 38.451,194.64 v 0 c 3.971,34.396 6.828,68.874 7.771,103.447 v 0 c 1.004,36.786 0.971,73.587 -1.159,110.388 v 0 c -2.469,42.655 -6.799,85.062 -13.327,127.279 v 0 c -9.35,60.46 -23.087,119.895 -41.451,178.231 v 0 c -62.66,199.051 -168.245,372.048 -316.773,518.532 v 0 c -218.677,215.669 -503.866,341.194 -808.544,358.248 v 0 c -23.516,1.316 -47.035,1.983 -70.553,1.983 v 0 c -37.907,0 -75.808,-1.734 -113.667,-5.278 M 876.465,2536.88 C 823.531,2421.317 788.819,2300.565 772.723,2174.431 v 0 c -5.457,-42.764 -8.757,-85.673 -9.898,-128.721 v 0 c -1.336,-50.444 0.582,-100.809 5.436,-151.072 v 0 c 3.61,-37.381 8.789,-74.505 15.614,-111.428 v 0 c 13.341,-72.169 32.746,-142.668 59.064,-211.154 v 0 c 97.018,-252.457 258.278,-453.761 483.295,-603.604 v 0 c 125.629,-83.658 262.569,-141.541 409.792,-175.012 v 0 c 42.001,-9.549 84.375,-16.811 127.135,-22.04 v 0 c 31.439,-3.844 62.964,-6.792 94.578,-7.836 v 0 c 55.195,-1.823 110.385,-1.711 165.484,3.43 v 0 c 34.454,3.214 68.764,7.275 102.855,13.194 v 0 c 10.508,1.825 21.011,3.081 31.778,3.075 v 0 c 250.682,-0.148 501.363,-0.115 752.045,-0.113 v 0 c 3.313,0 6.629,-0.063 9.937,0.073 v 0 c 0.201,0.008 0.412,0.004 0.626,0 v 0 c 1.211,-0.02 2.568,-0.04 3.36,2.07 v 0 c -1.61,4.235 -5.686,6.948 -8.955,10.218 v 0 c -444.025,444.088 -888.084,888.145 -1332.142,1332.203 v 0 c -2.081,2.081 -4.317,4.032 -6.226,6.262 v 0 c -2.888,3.374 -6.435,4.688 -10.777,4.288 v 0 c -1.46,-0.133 -2.944,-0.014 -4.416,-0.014 v 0 c -22.998,0 -45.996,0 -68.994,0 v 0 c -97.741,0 -195.483,0.01 -293.224,-0.076 v 0 c -8.435,-0.01 -16.917,-0.639 -25.297,-1.648 v 0 c -37.943,-4.57 -70.508,-20.523 -96.914,-48.061 v 0 c -37.087,-38.68 -52.843,-85.266 -47.458,-138.4 v 0 c 3.637,-35.892 19.008,-66.963 43.569,-93.399 v 0 c 5.008,-5.39 10.283,-10.535 15.488,-15.742 v 0 c 330.566,-330.574 661.137,-661.145 991.707,-991.716 v 0 c 2.863,-2.863 5.763,-5.692 8.558,-8.62 v 0 c 1.228,-1.286 2.238,-2.781 4.483,-5.615 v 0 c -3.447,-0.936 -5.104,-1.57 -6.818,-1.823 v 0 c -35.698,-5.27 -71.585,-8.974 -107.605,-10.642 v 0 c -65.158,-3.016 -130.235,-1.884 -195.146,5.526 v 0 c -34.014,3.883 -67.81,8.932 -101.407,15.494 v 0 c -85.922,16.783 -169.094,42.512 -248.901,78.4 v 0 c -252.174,113.399 -443.834,292.121 -574.608,535.688 v 0 c -52.169,97.168 -88.923,200.17 -111.655,308.145 v 0 c -8.95,42.517 -15.634,85.353 -19.958,128.595 v 0 c -3.006,30.051 -4.996,60.154 -5.734,90.322 v 0 c -1.552,63.396 1.888,126.533 10.368,189.406 v 0 c 5.265,39.041 12.329,77.728 21.397,116.053 v 0 c 17.669,74.677 42.319,146.969 74.107,216.823 v 0 c 1.331,2.926 2.309,6.011 3.305,8.635 v 0 c -11.712,14.155 -36.832,38.858 -44.082,43.229 v 0 c -3.359,-7.357 -6.684,-14.654 -10.024,-21.945"
           style="display:inline;fill:url(#linearGradient464);stroke:none"
           id="path466" />
      </g>
    </g>
    <path
       d="m -214.48909,-368.34277 c -1.83669,0.17203 -3.66419,0.40438 -5.47849,0.72987 v 0 c -4.04563,0.72578 -7.99046,1.81897 -11.81981,3.31741 v 0 c -10.26938,4.01844 -18.93414,10.27071 -26.0268,18.70951 v 0 c -0.14457,0.17203 -0.29189,0.3418 -0.45624,0.53407 v 0 c -0.14328,0 -0.28616,0 -0.42893,0 v 0 c -0.0816,0 -0.16317,0 -0.24476,0 v 0 c -2.3899,-0.002 -4.7798,-0.003 -7.16965,-0.005 v 0 c -1.30347,-8.7e-4 -2.60689,-0.002 -3.91032,-0.002 v 0 c -0.44662,0 -0.89329,0 -1.33987,5.8e-4 v 0 h -8.7e-4 c -0.0496,0 -0.10096,-0.004 -0.15386,-0.004 v 0 c -0.0959,0 -0.19702,0.014 -0.30247,0.0925 v 0 c 0.14747,0.15935 0.26801,0.29865 0.39796,0.42861 v 0 c 5.94734,5.94886 11.89551,11.8969 17.84357,17.84509 v 0 c 0.61297,0.61306 1.26136,1.18593 1.95499,1.70604 v 0 c 3.34592,2.50897 7.11551,3.78421 11.29246,3.81912 v 0 c 1.42918,0.012 2.8582,0.0152 4.28748,0.0152 v 0 c 1.71529,0 3.43052,-0.005 5.14581,-0.005 v 0 c 0.14855,0 0.29756,0 0.44611,0 v 0 c 8.22341,0.004 16.44681,0.01 24.67032,0.0103 v 0 c 0.77414,0 1.53918,0.0618 2.29932,0.21001 v 0 c 5.20684,1.01477 9.34479,6.1261 8.24027,12.18374 v 0 c -0.89539,4.91103 -5.23925,8.50021 -10.24453,8.52904 v 0 c -0.24854,0.001 -0.49708,0.002 -0.74572,0.002 v 0 c -0.41943,0 -0.83876,-10e-4 -1.25819,-10e-4 v 0 c -0.17876,0 -0.35767,0 -0.53643,8.7e-4 v 0 h -0.001 c -0.0375,0 -0.0771,-0.005 -0.11686,-0.005 v 0 c -0.0706,0 -0.14134,0.0155 -0.20008,0.10173 v 0 c 0.086,0.20521 0.27354,0.33741 0.42822,0.4922 v 0 c 5.87962,5.88353 11.76102,11.76532 17.64217,17.64726 v 0 c 0.0532,0.0533 0.11149,0.10245 0.15847,0.16072 v 0 c 0.18904,0.23409 0.42265,0.31578 0.72783,0.31578 v 0 c 0.004,0 0.007,0 0.011,0 v 0 c 1.17225,-0.007 2.32605,-0.15045 3.46753,-0.4057 v 0 c 2.10803,-0.4714 4.08954,-1.27462 5.98155,-2.30514 v 0 c 3.14282,-1.71187 5.90134,-3.89279 8.10931,-6.72883 v 0 c 4.00949,-5.15003 6.20682,-11.00313 6.69521,-17.49716 v 0 c 0.19108,-2.54076 0.0687,-5.07881 -0.3403,-7.59662 v 0 c -0.51196,-3.15155 -1.3889,-6.19929 -2.67489,-9.12418 v 0 c -2.79819,-6.36397 -7.14378,-11.36677 -13.16214,-14.87731 v 0 c -4.8304,-2.81754 -10.08489,-4.27155 -15.62641,-4.77423 v 0 c -1.48208,-0.13445 -2.968,-0.16149 -4.45478,-0.16482 v 0 c -4.87381,-0.0109 -9.74761,-0.0236 -14.62147,-0.0286 v 0 c -12.49509,-0.0129 -24.99022,-0.022 -37.48531,-0.0326 v 0 c -0.0734,0 -0.14676,0 -0.22359,0 v 0 c -0.13823,0 -0.28759,0 -0.46794,0 v 0 c 0.0915,-0.32703 0.27645,-0.46608 0.4229,-0.62635 v 0 c 5.92547,-6.48221 12.90844,-11.48828 20.97005,-14.9751 v 0 c 5.49147,-2.37518 11.21477,-3.89212 17.16258,-4.56658 v 0 c 2.04014,-0.23127 4.08576,-0.35284 6.13623,-0.3988 v 0 c 0.29081,-0.007 0.58152,-0.01 0.87219,-0.01 v 0 c 1.47773,0 2.95368,0.0786 4.42917,0.17765 v 0 c 1.80347,0.12105 3.5964,0.33065 5.3787,0.62113 v 0 c 3.68341,0.60038 7.28211,1.53274 10.79708,2.79223 v 0 c 16.26401,5.82724 29.47773,18.53325 35.9382,34.56596 v 0 c 2.00007,4.96349 3.33125,10.09818 3.97463,15.41266 v 0 c 0.19461,1.60759 0.34204,3.21895 0.40098,4.83527 v 0 c 0.12289,3.37047 0.0231,6.73374 -0.4022,10.08463 v 0 c -0.25125,1.97919 -0.57943,3.94309 -1.01578,5.88971 v 0 c -1.84881,8.24715 -5.27714,15.77767 -10.25435,22.60445 v 0 c -2.35755,3.23367 -5.00932,6.2061 -7.9581,8.91286 v 0 c -0.1184,0.10863 -0.28024,0.19216 -0.30191,0.37303 v 0 c 0.53664,0.62134 1.71948,1.77803 2.08942,2.03604 v 0 c 0.13301,-0.1139 0.28013,-0.22749 0.41299,-0.35576 v 0 c 0.67707,-0.65329 1.36405,-1.29686 2.02302,-1.96804 v 0 c 7.68048,-7.82345 13.04548,-17.0001 16.05519,-27.54518 v 0 c 0.93062,-3.26071 1.57655,-6.57991 1.96557,-9.95038 v 0 c 0.20299,-1.75844 0.34903,-3.52097 0.39724,-5.28841 v 0 c 0.0513,-1.88057 0.0496,-3.76192 -0.0592,-5.64325 v 0 c -0.12621,-2.18061 -0.34755,-4.34854 -0.68126,-6.50676 v 0 c -0.47795,-3.09083 -1.18017,-6.12927 -2.11886,-9.11152 v 0 c -3.20315,-10.17588 -8.60051,-19.01982 -16.19311,-26.50837 v 0 c -11.17843,-11.02543 -25.7569,-17.44251 -41.33163,-18.31434 v 0 c -1.20231,-0.0673 -2.40437,-0.10138 -3.60673,-0.10138 v 0 c -1.9376,0 -3.87525,0.0886 -5.81035,0.26982 m -43.99598,24.00662 h 0.21464 0.32967 l 0.21424,-0.2506 c 0.0532,-0.0622 0.10459,-0.12203 0.15468,-0.18036 v 0 c 0.10571,-0.12305 0.20555,-0.23935 0.30549,-0.35831 v 0 c 3.49789,-4.16174 7.43178,-7.82636 11.69231,-10.89194 v 0 c 4.27511,-3.07617 9.00139,-5.63702 14.04741,-7.61161 v 0 c 3.70493,-1.44971 7.63651,-2.55308 11.68542,-3.27947 v 0 c 1.68109,-0.30157 3.45357,-0.5376 5.41883,-0.72169 v 0 c 1.89021,-0.17698 3.82265,-0.2667 5.74364,-0.2667 v 0 c 1.17788,0 2.37789,0.0337 3.56675,0.1003 v 0 c 7.67808,0.42978 15.10183,2.20944 22.06491,5.28949 v 0 c 6.98592,3.09012 13.31262,7.40333 18.8042,12.81975 v 0 c 3.7355,3.68436 6.97693,7.75868 9.63433,12.10993 v 0 c 2.65526,4.34771 4.80132,9.09286 6.37859,14.10378 v 0 c 0.91512,2.90736 1.61974,5.93741 2.09428,9.00605 v 0 c 0.31959,2.06676 0.5464,4.23306 0.6741,6.43866 v 0 c 0.0962,1.66433 0.11537,3.49036 0.0583,5.58247 v 0 c -0.0439,1.6061 -0.17233,3.31546 -0.3928,5.22584 v 0 c -0.38958,3.37467 -1.04318,6.68394 -1.94282,9.83597 v 0 c -1.47952,5.18377 -3.56752,10.10564 -6.20611,14.62901 v 0 c -2.63184,4.51193 -5.8858,8.755 -9.6716,12.61123 v 0 c -0.47954,0.48837 -0.98648,0.97382 -1.47671,1.44322 v 0 c -0.15233,0.14585 -0.30467,0.29171 -0.45659,0.43797 v 0 c -0.32491,-0.29856 -0.75784,-0.72256 -1.11894,-1.10061 v 0 c 2.89485,-2.67864 5.54372,-5.65695 7.87585,-8.85565 v 0 c 2.50952,-3.4422 4.65395,-7.1079 6.37358,-10.89537 v 0 c 1.72535,-3.7999 3.07141,-7.82857 4.00075,-11.9741 v 0 c 0.42096,-1.87776 0.75701,-3.82602 1.02738,-5.95622 v 0 c 0.40747,-3.2102 0.54068,-6.54688 0.40747,-10.20072 v 0 c -0.0542,-1.48693 -0.18694,-3.08813 -0.40568,-4.89524 v 0 c -0.64476,-5.32553 -1.99767,-10.57222 -4.02135,-15.59419 v 0 c -1.61678,-4.01236 -3.67768,-7.87473 -6.12545,-11.4798 v 0 c -2.41801,-3.56131 -5.22233,-6.8849 -8.33505,-9.8786 v 0 c -3.11246,-2.9934 -6.54247,-5.66575 -10.19469,-7.94272 v 0 c -3.69654,-2.30458 -7.63483,-4.21265 -11.70536,-5.67111 v 0 c -3.54834,-1.27135 -7.22347,-2.22181 -10.92339,-2.8248 v 0 c -1.82248,-0.29707 -3.65472,-0.50866 -5.44592,-0.62885 v 0 c -1.32029,-0.0887 -2.88473,-0.17933 -4.47707,-0.17933 v 0 c -0.30079,0 -0.59968,0.003 -0.88829,0.01 v 0 c -2.2183,0.0497 -4.24658,0.18164 -6.2008,0.40325 v 0 c -2.99959,0.34017 -5.97899,0.90031 -8.85559,1.66494 v 0 c -2.88621,0.76719 -5.74952,1.76167 -8.51044,2.95587 v 0 c -4.04987,1.75165 -7.89149,3.91799 -11.41811,6.43892 v 0 c -3.51119,2.50983 -6.80707,5.44035 -9.79603,8.71016 v 0 c -0.0175,0.0191 -0.0397,0.0419 -0.0633,0.0659 v 0 c -0.15755,0.16093 -0.39571,0.40422 -0.52059,0.85036 v 0 l -0.25437,0.90864 h 0.94355 0.2652 0.20274 0.22298 c 3.52647,0.003 7.05299,0.006 10.57946,0.009 v 0 c 8.81848,0.007 17.93718,0.0146 26.90569,0.0239 v 0 c 3.90603,0.004 7.87754,0.0131 11.71839,0.022 v 0 l 2.90226,0.007 c 1.38798,0.003 2.88064,0.0247 4.39171,0.16186 v 0 c 2.80104,0.25407 5.47245,0.75614 7.94,1.49214 v 0 c 2.61508,0.77997 5.10159,1.85246 7.39053,3.18756 v 0 c 2.90819,1.69638 5.46929,3.79018 7.61213,6.22339 v 0 c 2.11442,2.40089 3.88262,5.2014 5.25541,8.32372 v 0 c 1.23083,2.79944 2.11355,5.81104 2.62361,8.95095 v 0 c 0.4044,2.48979 0.51645,4.98904 0.33299,7.42818 v 0 c -0.23913,3.18014 -0.90613,6.22553 -1.98238,9.0515 v 0 c -1.08704,2.85439 -2.62254,5.566 -4.56382,8.05963 v 0 c -1.03751,1.3326 -2.24641,2.56806 -3.59313,3.67219 v 0 c -1.27587,1.04596 -2.72049,2.01084 -4.29387,2.86779 v 0 c -1.96858,1.07224 -3.86431,1.80343 -5.79537,2.23521 v 0 c -1.12236,0.25101 -2.23798,0.38168 -3.31489,0.38853 v 0 l -0.007,5e-5 c -0.13087,0 -0.14518,-0.0177 -0.17105,-0.0497 v 0 c -0.0622,-0.077 -0.1258,-0.13742 -0.17227,-0.18159 v 0 c -0.0123,-0.0117 -0.0248,-0.0234 -0.0369,-0.0355 v 0 l -2.17633,-2.17663 c -4.86241,-4.86303 -9.88333,-9.88459 -14.83361,-14.83805 v 0 c 0.18219,5.8e-4 0.36432,5.8e-4 0.54651,5.8e-4 v 0 c 0.28626,0 0.52453,-5.8e-4 0.74986,-0.002 v 0 c 2.58967,-0.0149 5.11708,-0.93783 7.11663,-2.59884 v 0 c 2.0059,-1.66627 3.36535,-3.98092 3.82787,-6.51749 v 0 c 0.55351,-3.03603 -0.11256,-6.06465 -1.87554,-8.52796 v 0 c -0.82526,-1.15312 -1.84789,-2.13037 -3.03942,-2.90451 v 0 c -1.20169,-0.78073 -2.51135,-1.31307 -3.89248,-1.58228 v 0 c -0.77035,-0.15014 -1.56729,-0.22314 -2.43621,-0.22325 v 0 c -6.54354,-5e-4 -13.19658,-0.004 -19.63063,-0.008 v 0 l -5.03943,-0.003 h -0.44642 c -0.85813,0 -1.73042,0.001 -2.57393,0.002 v 0 c -0.843,10e-4 -1.71472,0.002 -2.57188,0.002 v 0 c -1.68303,0 -3.0435,-0.005 -4.2815,-0.0152 v 0 c -2.00252,-0.0168 -3.93189,-0.33439 -5.73459,-0.94412 v 0 c -1.80254,-0.60968 -3.5301,-1.52881 -5.13451,-2.73191 v 0 c -0.63346,-0.47502 -1.26544,-1.02663 -1.87836,-1.63953 v 0 l -2.5251,-2.52517 c -4.87161,-4.87177 -9.74312,-9.74339 -14.61426,-14.61567 v 0 c 0.063,0 0.12595,0 0.18898,0 v 0 c 0.92259,0 1.84518,7.2e-4 2.76777,0.001 v 0 l 1.14209,8.7e-4 7.1696,0.005 h 0.24527 z m -8.33986,13.01335 c -2.70591,5.90781 -4.48034,12.08089 -5.30315,18.52911 v 0 c -0.27895,2.18618 -0.44765,4.37977 -0.50597,6.58047 v 0 c -0.0683,2.5788 0.0297,5.15356 0.27788,7.7231 v 0 c 0.18454,1.91099 0.44928,3.80889 0.79816,5.69642 v 0 c 0.68198,3.68942 1.67394,7.29347 3.01933,10.79466 v 0 c 4.95938,12.90604 13.20277,23.1971 24.70534,30.85737 v 0 c 6.42198,4.27676 13.42217,7.23585 20.94801,8.94696 v 0 c 2.14704,0.48816 4.31314,0.85941 6.49897,1.12673 v 0 c 1.60712,0.19646 3.21864,0.34722 4.8347,0.40059 v 0 c 1.02912,0.034 2.05824,0.0548 3.08711,0.0548 v 0 c 1.79186,0 3.58295,-0.0632 5.37221,-0.23015 v 0 c 1.76124,-0.16431 3.51512,-0.37191 5.25781,-0.6745 v 0 c 0.53588,-0.0931 1.07144,-0.1572 1.62046,-0.1572 v 0 c 0.001,0 0.003,0 0.004,0 v 0 c 8.67781,0.005 17.35601,0.006 26.03381,0.006 v 0 c 4.13668,0 8.273,-1.4e-4 12.40972,-1.4e-4 v 0 c 0.0818,0 0.16363,7.2e-4 0.24547,7.2e-4 v 0 c 0.0875,0 0.17509,-8.7e-4 0.2625,-0.004 v 0 c 0.005,-1.5e-4 0.009,-2.9e-4 0.0142,-2.9e-4 v 0 c 0.0117,0 0.0238,4.3e-4 0.0361,4.3e-4 v 0 c 0.0568,0 0.11691,-0.009 0.15341,-0.10597 v 0 c -0.0823,-0.2165 -0.29066,-0.35525 -0.45777,-0.52237 v 0 c -22.69846,-22.70267 -45.39821,-45.40374 -68.0978,-68.10485 v 0 c -0.10638,-0.10639 -0.22068,-0.20613 -0.31827,-0.32013 v 0 c -0.1306,-0.15265 -0.28764,-0.22274 -0.47581,-0.22279 v 0 c -0.0245,0 -0.0495,10e-4 -0.0751,0.004 v 0 c -0.0267,0.002 -0.0536,0.003 -0.0805,0.003 v 0 c -0.0483,0 -0.0967,-0.003 -0.14498,-0.003 v 0 h -5e-4 -0.43339 c -2.08088,0 -4.16182,0 -6.24281,0 v 0 c -3.94677,0 -7.89308,5.8e-4 -11.8399,0.004 v 0 c -0.43118,5.8e-4 -0.86477,0.0327 -1.29315,0.0842 v 0 c -1.93959,0.23368 -3.60427,1.04913 -4.95411,2.45698 v 0 c -1.89584,1.97739 -2.70126,4.35896 -2.42604,7.07533 v 0 c 0.18597,1.83482 0.97171,3.42323 2.22724,4.77469 v 0 c 0.256,0.27555 0.52565,0.53857 0.79173,0.80476 v 0 c 16.89808,16.8996 33.79642,33.79904 50.69472,50.69848 v 0 c 0.14635,0.14636 0.29459,0.29099 0.43742,0.44062 v 0 c 0.0629,0.0658 0.11445,0.14222 0.22921,0.2871 v 0 c -0.1762,0.0478 -0.26091,0.0803 -0.34852,0.0932 v 0 c -1.82484,0.26941 -3.65933,0.45876 -5.50062,0.54404 v 0 c -1.11506,0.0516 -2.22985,0.0794 -3.34383,0.0794 v 0 c -2.21354,0 -4.42447,-0.10996 -6.63178,-0.36194 v 0 c -1.73875,-0.19851 -3.46635,-0.45662 -5.18378,-0.79209 v 0 c -4.39222,-0.85798 -8.64386,-2.17329 -12.72349,-4.00796 v 0 c -12.89074,-5.79718 -22.68814,-14.9338 -29.37308,-27.38548 v 0 c -2.66686,-4.96736 -4.54568,-10.23303 -5.70766,-15.75292 v 0 c -0.45756,-2.17355 -0.79924,-4.36347 -1.02027,-6.57403 v 0 c -0.15367,-1.53627 -0.25539,-3.07519 -0.29312,-4.61744 v 0 c -0.0793,-3.24093 0.0965,-6.46862 0.53,-9.68281 v 0 c 0.26919,-1.99585 0.63024,-3.97361 1.09379,-5.93286 v 0 c 0.90321,-3.81763 2.16329,-7.51334 3.78825,-11.08442 v 0 c 0.068,-0.14958 0.11808,-0.30729 0.16894,-0.44143 v 0 c -0.5987,-0.72363 -1.8828,-1.9865 -2.25341,-2.20995 v 0 c -0.17171,0.37605 -0.34168,0.74914 -0.51241,1.12187 m 55.29709,89.9399 c -1.4346,-0.0473 -2.95072,-0.17305 -4.77147,-0.39569 v 0 c -2.19176,-0.26798 -4.35423,-0.64291 -6.4272,-1.1142 v 0 c -3.72292,-0.84648 -7.34519,-2.01456 -10.7661,-3.4719 v 0 c -3.45485,-1.47175 -6.80041,-3.27942 -9.94385,-5.37286 v 0 c -2.83259,-1.88641 -5.50088,-3.96298 -7.9307,-6.17211 v 0 c -2.4288,-2.20817 -4.68758,-4.61074 -6.71367,-7.14108 v 0 c -2.02655,-2.53084 -3.87725,-5.2606 -5.50073,-8.11346 v 0 c -1.62485,-2.85527 -3.06783,-5.9142 -4.2889,-9.09179 v 0 c -1.29361,-3.36638 -2.29738,-6.95555 -2.98359,-10.66798 v 0 c -0.34107,-1.84525 -0.60673,-3.74121 -0.78958,-5.63512 v 0 c -0.24839,-2.57266 -0.34086,-5.14149 -0.27482,-7.63537 v 0 c 0.0574,-2.16584 0.22574,-4.35575 0.50045,-6.5088 v 0 c 0.40415,-3.16711 1.05126,-6.31648 1.9235,-9.36064 v 0 c 0.86896,-3.03291 1.98616,-6.04783 3.32041,-8.96102 v 0 c 0.0401,-0.0876 0.0802,-0.17519 0.12028,-0.26281 v 0 c 0.36688,0.34722 0.81703,0.80103 1.1743,1.1984 v 0 c -1.63048,3.58329 -2.9201,7.35676 -3.83303,11.21549 v 0 c -0.45853,1.93824 -0.83088,3.95761 -1.10657,6.00198 v 0 c -0.43583,3.23147 -0.61628,6.5273 -0.53623,9.79604 v 0 c 0.0367,1.49977 0.13649,3.07136 0.29644,4.67112 v 0 c 0.22088,2.20908 0.56813,4.44654 1.03208,6.6503 v 0 c 0.59012,2.80343 1.36962,5.55532 2.3167,8.17921 v 0 c 0.96374,2.67015 2.12812,5.28264 3.46073,7.76481 v 0 c 1.6814,3.13179 3.58526,6.09676 5.65873,8.81256 v 0 c 2.07476,2.71754 4.37709,5.26127 6.84316,7.56048 v 0 c 2.46622,2.29952 5.16477,4.41847 8.02062,6.29802 v 0 c 2.85451,1.87878 5.94571,3.57062 9.18765,5.02856 v 0 c 4.02171,1.80865 8.35514,3.17381 12.87981,4.05771 v 0 c 1.67904,0.32794 3.39305,0.58984 5.23986,0.80072 v 0 c 2.13053,0.24319 4.3891,0.36654 6.7129,0.36654 v 0 c 1.09072,0 2.22689,-0.0269 3.3769,-0.0802 v 0 c 1.77898,-0.0824 3.65371,-0.26772 5.57214,-0.55094 v 0 c 0.10561,-0.0156 0.19333,-0.0415 0.28616,-0.069 v 0 c 0.0417,-0.0123 0.0889,-0.0263 0.14523,-0.0416 v 0 l 1.04732,-0.28429 -0.67374,-0.85072 c -0.038,-0.048 -0.0685,-0.0879 -0.0947,-0.12219 v 0 c -0.0593,-0.0774 -0.11052,-0.14431 -0.17789,-0.21481 v 0 c -0.11241,-0.11778 -0.22651,-0.23117 -0.33687,-0.34083 v 0 c -0.0374,-0.0372 -0.0748,-0.0744 -0.11216,-0.1117 v 0 l -6.85066,-6.85116 c -14.61472,-14.61567 -29.22949,-29.23139 -43.84401,-43.84731 v 0 c -0.0542,-0.0542 -0.10852,-0.10828 -0.16291,-0.16242 v 0 c -0.21389,-0.21282 -0.41586,-0.41383 -0.61062,-0.62343 v 0 c -1.18989,-1.28086 -1.8761,-2.74765 -2.03948,-4.35973 v 0 c -0.12682,-1.25162 -0.004,-2.433 0.36407,-3.51111 v 0 c 0.36989,-1.08241 0.99789,-2.09058 1.86655,-2.99667 v 0 c 1.2205,-1.27299 2.74231,-2.02724 4.52308,-2.24175 v 0 c 0.4389,-0.0529 0.8341,-0.0787 1.20819,-0.0791 v 0 c 4.07405,-0.004 8.09785,-0.004 11.83928,-0.004 v 0 l 3.12136,5e-5 h 3.12145 0.43369 c 0.018,0 0.0359,5.8e-4 0.0539,10e-4 v 0 c 0.0304,7.2e-4 0.0608,10e-4 0.0911,10e-4 v 0 c 0.0405,0 0.0782,-10e-4 0.11435,-0.004 v 0 c 0.081,0.0914 0.16332,0.17018 0.23673,0.24048 v 0 c 0.031,0.0297 0.0622,0.0594 0.0925,0.0898 v 0 l 1.81114,1.81126 c 21.53245,21.53402 43.79248,43.79544 65.69641,65.70387 v 0 l -5.06765,1e-4 -6.50024,1e-4 c -8.255,0 -17.1223,-7.3e-4 -26.03381,-0.006 v 0 h -0.004 c -0.5301,0 -1.08392,0.0533 -1.74284,0.16768 v 0 c -1.54276,0.26788 -3.19573,0.47989 -5.20193,0.66709 v 0 c -1.63733,0.15276 -3.37286,0.22704 -5.30571,0.22704 v 0 c -0.95224,0 -1.95432,-0.0178 -3.06349,-0.0545"
       style="display:inline;fill:url(#linearGradient490);stroke:none;stroke-width:0.0511203"
       id="path492" />
  </g>
</svg>
