<?xml version="1.0" encoding="UTF-8" standalone="no"?>
<!-- Created with Inkscape (http://www.inkscape.org/) -->

<svg
   width="128.00003mm"
   height="128.00002mm"
   viewBox="0 0 128.00003 128.00002"
   version="1.1"
   id="svg1332"
   inkscape:version="1.2.1 (9c6d41e410, 2022-07-14)"
   sodipodi:docname="electron_dark_icon.svg"
   xmlns:inkscape="http://www.inkscape.org/namespaces/inkscape"
   xmlns:sodipodi="http://sodipodi.sourceforge.net/DTD/sodipodi-0.dtd"
   xmlns="http://www.w3.org/2000/svg"
   xmlns:svg="http://www.w3.org/2000/svg">
  <sodipodi:namedview
     id="namedview1334"
     pagecolor="#ffffff"
     bordercolor="#000000"
     borderopacity="0.25"
     inkscape:showpageshadow="2"
     inkscape:pageopacity="0.0"
     inkscape:pagecheckerboard="0"
     inkscape:deskcolor="#d1d1d1"
     inkscape:document-units="mm"
     showgrid="false"
     inkscape:zoom="1.5215769"
     inkscape:cx="78.208338"
     inkscape:cy="249.74091"
     inkscape:window-width="1920"
     inkscape:window-height="1009"
     inkscape:window-x="1912"
     inkscape:window-y="-8"
     inkscape:window-maximized="1"
     inkscape:current-layer="layer1" />
  <defs
     id="defs1329">
    <linearGradient
       x1="0"
       y1="0"
       x2="1"
       y2="0"
       gradientUnits="userSpaceOnUse"
       gradientTransform="matrix(0,883.2907,-883.2907,0,63.29508,-311.22972)"
       spreadMethod="pad"
       id="linearGradient464">
      <stop
         style="stop-opacity:1;stop-color:#30c5f4"
         offset="0"
         id="stop454" />
      <stop
         style="stop-opacity:1;stop-color:#30c5f4"
         offset="0.266348"
         id="stop456" />
      <stop
         style="stop-opacity:1;stop-color:#fff2c3"
         offset="0.69136871"
         id="stop458" />
      <stop
         style="stop-opacity:1;stop-color:#fff2c3"
         offset="0.820354"
         id="stop460" />
      <stop
         style="stop-opacity:1;stop-color:#fff2c3"
         offset="1"
         id="stop462" />
    </linearGradient>
  </defs>
  <g
     inkscape:label="Layer 1"
     inkscape:groupmode="layer"
     id="layer1"
     transform="translate(378.37898,311.22968)">
    <path
       d="m -319.2113,-304.98214 c -1.67883,0.15724 -3.34928,0.36962 -5.00768,0.66709 v 0 c -3.69795,0.66341 -7.30381,1.6627 -10.80404,3.03237 v 0 c -9.38686,3.6731 -17.30698,9.38805 -23.79012,17.10166 v 0 c -0.13214,0.15724 -0.26681,0.31242 -0.41703,0.48815 v 0 c -0.20577,0 -0.41076,0 -0.61586,0 v 0 c -2.18445,-8.9e-4 -4.36897,-0.003 -6.55344,-0.005 v 0 c -1.5997,-9.1e-4 -3.19934,-0.003 -4.799,-0.002 v 0 c -0.0229,5e-5 -0.0464,-9e-4 -0.0703,-0.002 v 0 c -0.1084,-0.005 -0.22487,-0.0101 -0.34785,0.0827 v 0 c 0.13481,0.14568 0.24499,0.27299 0.36376,0.39178 v 0 c 5.43627,5.43763 10.87325,10.8745 16.31016,16.31153 v 0 c 0.56029,0.56033 1.15291,1.08401 1.78698,1.55942 v 0 c 3.05838,2.29336 6.50401,3.45901 10.32201,3.49093 v 0 c 2.0901,0.0177 4.18037,0.0148 6.27063,0.0119 v 0 c 0.91993,-0.002 1.83982,-0.003 2.75976,-0.002 v 0 c 7.5167,0.004 15.0334,0.009 22.55016,0.0101 v 0 c 0.70767,0 1.40697,0.0565 2.10183,0.19196 v 0 c 4.75933,0.92757 8.54172,5.59964 7.53207,11.13672 v 0 c -0.81844,4.48898 -4.78901,7.76975 -9.3641,7.79606 v 0 c -0.41941,0.003 -0.83885,0.002 -1.25828,9e-4 v 0 c -0.35464,-5.2e-4 -0.70924,-9e-4 -1.06379,0 v 0 c -0.0176,5e-5 -0.0357,-9e-4 -0.0541,-0.002 v 0 c -0.0814,-0.005 -0.16817,-0.0103 -0.23695,0.0906 v 0 c 0.0786,0.18755 0.25003,0.30841 0.39144,0.44991 v 0 c 5.37432,5.3779 10.7503,10.75421 16.12609,16.13068 v 0 c 0.0486,0.0487 0.10185,0.0936 0.14478,0.1469 v 0 c 0.17491,0.21658 0.39147,0.29037 0.67534,0.28856 v 0 c 1.07152,-0.007 2.12615,-0.13752 3.16955,-0.37084 v 0 c 1.92685,-0.43087 3.73809,-1.16509 5.46749,-2.10704 v 0 c 2.87274,-1.56476 5.39425,-3.55825 7.41243,-6.15056 v 0 c 3.66486,-4.70744 5.67341,-10.05756 6.11984,-15.9935 v 0 c 0.17466,-2.32243 0.0628,-4.64236 -0.31106,-6.94378 v 0 c -0.4679,-2.88082 -1.26949,-5.66664 -2.44496,-8.34017 v 0 c -2.55767,-5.81706 -6.52987,-10.38993 -12.03102,-13.5988 v 0 c -4.41528,-2.57538 -9.21821,-3.90444 -14.2835,-4.36394 v 0 c -1.35474,-0.1229 -2.71295,-0.14761 -4.07196,-0.15065 v 0 c -4.45495,-0.0101 -8.90993,-0.0215 -13.36494,-0.0261 v 0 c -11.42129,-0.0119 -22.84262,-0.02 -34.26392,-0.0298 v 0 c -0.18783,0 -0.37562,0 -0.6321,0 v 0 c 0.0836,-0.29893 0.2527,-0.42603 0.38656,-0.57252 v 0 c 5.41625,-5.92515 11.79912,-10.50101 19.16794,-13.68819 v 0 c 5.01954,-2.17106 10.25099,-3.55762 15.68767,-4.17412 v 0 c 1.86482,-0.21141 3.73458,-0.32249 5.6089,-0.36454 v 0 c 1.61731,-0.0363 3.23181,0.0453 4.84577,0.15365 v 0 c 1.64848,0.11064 3.28733,0.30223 4.91648,0.56775 v 0 c 3.36685,0.54879 6.6563,1.40106 9.86924,2.55227 v 0 c 14.86628,5.32646 26.94443,16.94054 32.84971,31.59544 v 0 c 1.8282,4.53694 3.04498,9.23036 3.63307,14.08813 v 0 c 0.17788,1.46942 0.31265,2.94231 0.36652,4.41973 v 0 c 0.11233,3.08083 0.0211,6.15502 -0.36766,9.21798 v 0 c -0.22959,1.8091 -0.52957,3.60423 -0.92847,5.38356 v 0 c -1.68992,7.5383 -4.82363,14.42165 -9.37311,20.66176 v 0 c -2.15494,2.95577 -4.57884,5.67276 -7.27421,8.14691 v 0 c -0.10821,0.0992 -0.25615,0.17565 -0.27595,0.34097 v 0 c 0.49051,0.56795 1.57175,1.62523 1.90985,1.86107 v 0 c 0.12152,-0.10411 0.25606,-0.20794 0.3775,-0.32515 v 0 c 0.61889,-0.59718 1.24687,-1.18549 1.84916,-1.79896 v 0 c 7.02044,-7.15111 11.92441,-15.53915 14.67547,-25.17799 v 0 c 0.85068,-2.98049 1.44105,-6.01447 1.79663,-9.09529 v 0 c 0.18556,-1.60727 0.31905,-3.21837 0.36311,-4.83393 v 0 c 0.0469,-1.71897 0.0453,-3.43862 -0.0542,-5.15828 v 0 c -0.11537,-1.99322 -0.3177,-3.97482 -0.62274,-5.94758 v 0 c -0.43687,-2.82521 -1.07875,-5.60253 -1.93681,-8.32849 v 0 c -2.92783,-9.3014 -7.86135,-17.38531 -14.80142,-24.2303 v 0 c -10.21783,-10.07793 -23.54346,-15.94355 -37.77973,-16.74046 v 0 c -1.09881,-0.0615 -2.19775,-0.0927 -3.29665,-0.0927 v 0 c -1.77122,0 -3.54217,0.081 -5.31117,0.24664 m -47.83821,33.83855 c -2.47339,5.4001 -4.09531,11.04269 -4.84742,16.93676 v 0 c -0.25498,1.99831 -0.40918,4.00339 -0.46248,6.01496 v 0 c -0.0624,2.35718 0.0273,4.71066 0.25401,7.05938 v 0 c 0.16866,1.74677 0.41065,3.48155 0.72956,5.20688 v 0 c 0.62337,3.37236 1.53008,6.6667 2.7598,9.86694 v 0 c 4.53322,11.79699 12.06821,21.20365 22.58227,28.2056 v 0 c 5.8701,3.90922 12.2687,6.61404 19.14779,8.17809 v 0 c 1.96253,0.44621 3.94248,0.78556 5.94048,1.0299 v 0 c 1.469,0.17962 2.94202,0.31738 4.4192,0.36616 v 0 c 2.57903,0.0853 5.15781,0.0799 7.73236,-0.16028 v 0 c 1.60988,-0.15017 3.21305,-0.33993 4.80596,-0.61652 v 0 c 0.49099,-0.0852 0.98174,-0.14398 1.48484,-0.14368 v 0 c 11.71329,0.007 23.42652,0.006 35.1398,0.006 v 0 c 0.1548,0 0.30974,0.003 0.46431,-0.004 v 0 c 0.01,-5.3e-4 0.0193,-1.3e-4 0.0292,0 v 0 c 0.0566,9.1e-4 0.11999,0.002 0.157,-0.0967 v 0 c -0.0753,-0.19791 -0.26568,-0.32469 -0.41843,-0.47747 v 0 c -20.74736,-20.75165 -41.4963,-41.50184 -62.24519,-62.25207 v 0 c -0.0972,-0.0973 -0.20173,-0.18842 -0.29092,-0.29262 v 0 c -0.13494,-0.15766 -0.30068,-0.21905 -0.50356,-0.20037 v 0 c -0.0683,0.007 -0.13757,5.8e-4 -0.20634,5.8e-4 v 0 c -1.0746,0 -2.1492,0 -3.2238,0 v 0 c -4.567,0 -9.13406,-5.8e-4 -13.70106,0.004 v 0 c -0.39415,5.8e-4 -0.79046,0.0298 -1.18202,0.077 v 0 c -1.77293,0.21355 -3.29455,0.95901 -4.52838,2.24582 v 0 c -1.73292,1.80746 -2.46913,3.98438 -2.2175,6.46726 v 0 c 0.16994,1.67719 0.88816,3.12909 2.03577,4.3644 v 0 c 0.23402,0.25187 0.48049,0.49229 0.72371,0.7356 v 0 c 15.4459,15.44729 30.89204,30.89444 46.33814,46.34157 v 0 c 0.13378,0.13379 0.26929,0.26598 0.39988,0.40281 v 0 c 0.0574,0.06 0.10457,0.12995 0.20947,0.26237 v 0 c -0.16106,0.0439 -0.23849,0.0734 -0.31857,0.0852 v 0 c -1.66802,0.24625 -3.34486,0.41932 -5.02791,0.49727 v 0 c -3.04456,0.14093 -6.08532,0.0881 -9.11833,-0.25822 v 0 c -1.58933,-0.18144 -3.16847,-0.41738 -4.73831,-0.72402 v 0 c -4.01476,-0.78425 -7.90104,-1.98652 -11.63006,-3.66352 v 0 c -11.783,-5.2989 -20.73843,-13.65035 -26.84892,-25.0319 v 0 c -2.43764,-4.54052 -4.15499,-9.35367 -5.21717,-14.3992 v 0 c -0.41818,-1.98676 -0.73051,-3.98844 -0.93255,-6.00908 v 0 c -0.14045,-1.40424 -0.23343,-2.81091 -0.26792,-4.2206 v 0 c -0.0725,-2.96243 0.0881,-5.91275 0.48446,-8.8507 v 0 c 0.246,-1.82434 0.57608,-3.63215 0.99979,-5.423 v 0 c 0.82559,-3.48955 1.97738,-6.86767 3.4627,-10.13186 v 0 c 0.0623,-0.13672 0.10788,-0.28089 0.1544,-0.40349 v 0 c -0.54722,-0.66146 -1.72098,-1.81577 -2.05973,-2.02005 v 0 c -0.15697,0.34379 -0.31232,0.68477 -0.46838,1.02546"
       style="display:inline;fill:#363636;fill-opacity:1;stroke:none;stroke-width:0.0467272"
       id="path466"
       inkscape:label="path466" />
  </g>
</svg>
